<?xml version="1.0" encoding="utf-8" standalone="no"?>
<!DOCTYPE svg PUBLIC "-//W3C//DTD SVG 1.1//EN"
  "http://www.w3.org/Graphics/SVG/1.1/DTD/svg11.dtd">
<!-- Created with matplotlib (https://matplotlib.org/) -->
<svg height="432pt" version="1.1" viewBox="0 0 720 432" width="720pt" xmlns="http://www.w3.org/2000/svg" xmlns:xlink="http://www.w3.org/1999/xlink">
 <metadata>
  <rdf:RDF xmlns:cc="http://creativecommons.org/ns#" xmlns:dc="http://purl.org/dc/elements/1.1/" xmlns:rdf="http://www.w3.org/1999/02/22-rdf-syntax-ns#">
   <cc:Work>
    <dc:type rdf:resource="http://purl.org/dc/dcmitype/StillImage"/>
    <dc:date>2020-10-23T15:49:34.366068</dc:date>
    <dc:format>image/svg+xml</dc:format>
    <dc:creator>
     <cc:Agent>
      <dc:title>Matplotlib v3.3.2, https://matplotlib.org/</dc:title>
     </cc:Agent>
    </dc:creator>
   </cc:Work>
  </rdf:RDF>
 </metadata>
 <defs>
  <style type="text/css">*{stroke-linecap:butt;stroke-linejoin:round;}</style>
 </defs>
 <g id="figure_1">
  <g id="patch_1">
   <path d="M 0 432 
L 720 432 
L 720 0 
L 0 0 
z
" style="fill:#ffffff;"/>
  </g>
  <g id="axes_1">
   <g id="patch_2">
    <path d="M 48.675 391.2 
L 709.2 391.2 
L 709.2 10.8 
L 48.675 10.8 
z
" style="fill:#eaeaf2;"/>
   </g>
   <g id="matplotlib.axis_1">
    <g id="xtick_1">
     <g id="line2d_1">
      <path clip-path="url(#p8146f013cf)" d="M 93.168196 391.2 
L 93.168196 10.8 
" style="fill:none;stroke:#ffffff;stroke-linecap:round;"/>
     </g>
     <g id="line2d_2"/>
     <g id="text_1">
      <!-- 20 -->
      <g style="fill:#262626;" transform="translate(87.607258 405.357813)scale(0.1 -0.1)">
       <defs>
        <path d="M 50.34375 8.453125 
L 50.34375 0 
L 3.03125 0 
Q 2.9375 3.171875 4.046875 6.109375 
Q 5.859375 10.9375 9.828125 15.625 
Q 13.8125 20.3125 21.34375 26.46875 
Q 33.015625 36.03125 37.109375 41.625 
Q 41.21875 47.21875 41.21875 52.203125 
Q 41.21875 57.421875 37.46875 61 
Q 33.734375 64.59375 27.734375 64.59375 
Q 21.390625 64.59375 17.578125 60.78125 
Q 13.765625 56.984375 13.71875 50.25 
L 4.6875 51.171875 
Q 5.609375 61.28125 11.65625 66.578125 
Q 17.71875 71.875 27.9375 71.875 
Q 38.234375 71.875 44.234375 66.15625 
Q 50.25 60.453125 50.25 52 
Q 50.25 47.703125 48.484375 43.546875 
Q 46.734375 39.40625 42.65625 34.8125 
Q 38.578125 30.21875 29.109375 22.21875 
Q 21.1875 15.578125 18.9375 13.203125 
Q 16.703125 10.84375 15.234375 8.453125 
z
" id="ArialMT-50"/>
        <path d="M 4.15625 35.296875 
Q 4.15625 48 6.765625 55.734375 
Q 9.375 63.484375 14.515625 67.671875 
Q 19.671875 71.875 27.484375 71.875 
Q 33.25 71.875 37.59375 69.546875 
Q 41.9375 67.234375 44.765625 62.859375 
Q 47.609375 58.5 49.21875 52.21875 
Q 50.828125 45.953125 50.828125 35.296875 
Q 50.828125 22.703125 48.234375 14.96875 
Q 45.65625 7.234375 40.5 3 
Q 35.359375 -1.21875 27.484375 -1.21875 
Q 17.140625 -1.21875 11.234375 6.203125 
Q 4.15625 15.140625 4.15625 35.296875 
z
M 13.1875 35.296875 
Q 13.1875 17.671875 17.3125 11.828125 
Q 21.4375 6 27.484375 6 
Q 33.546875 6 37.671875 11.859375 
Q 41.796875 17.71875 41.796875 35.296875 
Q 41.796875 52.984375 37.671875 58.78125 
Q 33.546875 64.59375 27.390625 64.59375 
Q 21.34375 64.59375 17.71875 59.46875 
Q 13.1875 52.9375 13.1875 35.296875 
z
" id="ArialMT-48"/>
       </defs>
       <use xlink:href="#ArialMT-50"/>
       <use x="55.615234" xlink:href="#ArialMT-48"/>
      </g>
     </g>
    </g>
    <g id="xtick_2">
     <g id="line2d_3">
      <path clip-path="url(#p8146f013cf)" d="M 237.861514 391.2 
L 237.861514 10.8 
" style="fill:none;stroke:#ffffff;stroke-linecap:round;"/>
     </g>
     <g id="line2d_4"/>
     <g id="text_2">
      <!-- 40 -->
      <g style="fill:#262626;" transform="translate(232.300577 405.357813)scale(0.1 -0.1)">
       <defs>
        <path d="M 32.328125 0 
L 32.328125 17.140625 
L 1.265625 17.140625 
L 1.265625 25.203125 
L 33.9375 71.578125 
L 41.109375 71.578125 
L 41.109375 25.203125 
L 50.78125 25.203125 
L 50.78125 17.140625 
L 41.109375 17.140625 
L 41.109375 0 
z
M 32.328125 25.203125 
L 32.328125 57.46875 
L 9.90625 25.203125 
z
" id="ArialMT-52"/>
       </defs>
       <use xlink:href="#ArialMT-52"/>
       <use x="55.615234" xlink:href="#ArialMT-48"/>
      </g>
     </g>
    </g>
    <g id="xtick_3">
     <g id="line2d_5">
      <path clip-path="url(#p8146f013cf)" d="M 382.554833 391.2 
L 382.554833 10.8 
" style="fill:none;stroke:#ffffff;stroke-linecap:round;"/>
     </g>
     <g id="line2d_6"/>
     <g id="text_3">
      <!-- 60 -->
      <g style="fill:#262626;" transform="translate(376.993895 405.357813)scale(0.1 -0.1)">
       <defs>
        <path d="M 49.75 54.046875 
L 41.015625 53.375 
Q 39.84375 58.546875 37.703125 60.890625 
Q 34.125 64.65625 28.90625 64.65625 
Q 24.703125 64.65625 21.53125 62.3125 
Q 17.390625 59.28125 14.984375 53.46875 
Q 12.59375 47.65625 12.5 36.921875 
Q 15.671875 41.75 20.265625 44.09375 
Q 24.859375 46.4375 29.890625 46.4375 
Q 38.671875 46.4375 44.84375 39.96875 
Q 51.03125 33.5 51.03125 23.25 
Q 51.03125 16.5 48.125 10.71875 
Q 45.21875 4.9375 40.140625 1.859375 
Q 35.0625 -1.21875 28.609375 -1.21875 
Q 17.625 -1.21875 10.6875 6.859375 
Q 3.765625 14.9375 3.765625 33.5 
Q 3.765625 54.25 11.421875 63.671875 
Q 18.109375 71.875 29.4375 71.875 
Q 37.890625 71.875 43.28125 67.140625 
Q 48.6875 62.40625 49.75 54.046875 
z
M 13.875 23.1875 
Q 13.875 18.65625 15.796875 14.5 
Q 17.71875 10.359375 21.1875 8.171875 
Q 24.65625 6 28.46875 6 
Q 34.03125 6 38.03125 10.484375 
Q 42.046875 14.984375 42.046875 22.703125 
Q 42.046875 30.125 38.078125 34.390625 
Q 34.125 38.671875 28.125 38.671875 
Q 22.171875 38.671875 18.015625 34.390625 
Q 13.875 30.125 13.875 23.1875 
z
" id="ArialMT-54"/>
       </defs>
       <use xlink:href="#ArialMT-54"/>
       <use x="55.615234" xlink:href="#ArialMT-48"/>
      </g>
     </g>
    </g>
    <g id="xtick_4">
     <g id="line2d_7">
      <path clip-path="url(#p8146f013cf)" d="M 527.248152 391.2 
L 527.248152 10.8 
" style="fill:none;stroke:#ffffff;stroke-linecap:round;"/>
     </g>
     <g id="line2d_8"/>
     <g id="text_4">
      <!-- 80 -->
      <g style="fill:#262626;" transform="translate(521.687214 405.357813)scale(0.1 -0.1)">
       <defs>
        <path d="M 17.671875 38.8125 
Q 12.203125 40.828125 9.5625 44.53125 
Q 6.9375 48.25 6.9375 53.421875 
Q 6.9375 61.234375 12.546875 66.546875 
Q 18.171875 71.875 27.484375 71.875 
Q 36.859375 71.875 42.578125 66.421875 
Q 48.296875 60.984375 48.296875 53.171875 
Q 48.296875 48.1875 45.671875 44.5 
Q 43.0625 40.828125 37.75 38.8125 
Q 44.34375 36.671875 47.78125 31.875 
Q 51.21875 27.09375 51.21875 20.453125 
Q 51.21875 11.28125 44.71875 5.03125 
Q 38.234375 -1.21875 27.640625 -1.21875 
Q 17.046875 -1.21875 10.546875 5.046875 
Q 4.046875 11.328125 4.046875 20.703125 
Q 4.046875 27.6875 7.59375 32.390625 
Q 11.140625 37.109375 17.671875 38.8125 
z
M 15.921875 53.71875 
Q 15.921875 48.640625 19.1875 45.40625 
Q 22.46875 42.1875 27.6875 42.1875 
Q 32.765625 42.1875 36.015625 45.375 
Q 39.265625 48.578125 39.265625 53.21875 
Q 39.265625 58.0625 35.90625 61.359375 
Q 32.5625 64.65625 27.59375 64.65625 
Q 22.5625 64.65625 19.234375 61.421875 
Q 15.921875 58.203125 15.921875 53.71875 
z
M 13.09375 20.65625 
Q 13.09375 16.890625 14.875 13.375 
Q 16.65625 9.859375 20.171875 7.921875 
Q 23.6875 6 27.734375 6 
Q 34.03125 6 38.125 10.046875 
Q 42.234375 14.109375 42.234375 20.359375 
Q 42.234375 26.703125 38.015625 30.859375 
Q 33.796875 35.015625 27.4375 35.015625 
Q 21.234375 35.015625 17.15625 30.90625 
Q 13.09375 26.8125 13.09375 20.65625 
z
" id="ArialMT-56"/>
       </defs>
       <use xlink:href="#ArialMT-56"/>
       <use x="55.615234" xlink:href="#ArialMT-48"/>
      </g>
     </g>
    </g>
    <g id="xtick_5">
     <g id="line2d_9">
      <path clip-path="url(#p8146f013cf)" d="M 671.94147 391.2 
L 671.94147 10.8 
" style="fill:none;stroke:#ffffff;stroke-linecap:round;"/>
     </g>
     <g id="line2d_10"/>
     <g id="text_5">
      <!-- 100 -->
      <g style="fill:#262626;" transform="translate(663.600064 405.357813)scale(0.1 -0.1)">
       <defs>
        <path d="M 37.25 0 
L 28.46875 0 
L 28.46875 56 
Q 25.296875 52.984375 20.140625 49.953125 
Q 14.984375 46.921875 10.890625 45.40625 
L 10.890625 53.90625 
Q 18.265625 57.375 23.78125 62.296875 
Q 29.296875 67.234375 31.59375 71.875 
L 37.25 71.875 
z
" id="ArialMT-49"/>
       </defs>
       <use xlink:href="#ArialMT-49"/>
       <use x="55.615234" xlink:href="#ArialMT-48"/>
       <use x="111.230469" xlink:href="#ArialMT-48"/>
      </g>
     </g>
    </g>
    <g id="text_6">
     <!-- age -->
     <g style="fill:#262626;" transform="translate(369.761953 419.09)scale(0.11 -0.11)">
      <defs>
       <path d="M 40.4375 6.390625 
Q 35.546875 2.25 31.03125 0.53125 
Q 26.515625 -1.171875 21.34375 -1.171875 
Q 12.796875 -1.171875 8.203125 3 
Q 3.609375 7.171875 3.609375 13.671875 
Q 3.609375 17.484375 5.34375 20.625 
Q 7.078125 23.78125 9.890625 25.6875 
Q 12.703125 27.59375 16.21875 28.5625 
Q 18.796875 29.25 24.03125 29.890625 
Q 34.671875 31.15625 39.703125 32.90625 
Q 39.75 34.71875 39.75 35.203125 
Q 39.75 40.578125 37.25 42.78125 
Q 33.890625 45.75 27.25 45.75 
Q 21.046875 45.75 18.09375 43.578125 
Q 15.140625 41.40625 13.71875 35.890625 
L 5.125 37.0625 
Q 6.296875 42.578125 8.984375 45.96875 
Q 11.671875 49.359375 16.75 51.1875 
Q 21.828125 53.03125 28.515625 53.03125 
Q 35.15625 53.03125 39.296875 51.46875 
Q 43.453125 49.90625 45.40625 47.53125 
Q 47.359375 45.171875 48.140625 41.546875 
Q 48.578125 39.3125 48.578125 33.453125 
L 48.578125 21.734375 
Q 48.578125 9.46875 49.140625 6.21875 
Q 49.703125 2.984375 51.375 0 
L 42.1875 0 
Q 40.828125 2.734375 40.4375 6.390625 
z
M 39.703125 26.03125 
Q 34.90625 24.078125 25.34375 22.703125 
Q 19.921875 21.921875 17.671875 20.9375 
Q 15.4375 19.96875 14.203125 18.09375 
Q 12.984375 16.21875 12.984375 13.921875 
Q 12.984375 10.40625 15.640625 8.0625 
Q 18.3125 5.71875 23.4375 5.71875 
Q 28.515625 5.71875 32.46875 7.9375 
Q 36.421875 10.15625 38.28125 14.015625 
Q 39.703125 17 39.703125 22.796875 
z
" id="ArialMT-97"/>
       <path d="M 4.984375 -4.296875 
L 13.53125 -5.5625 
Q 14.0625 -9.515625 16.5 -11.328125 
Q 19.78125 -13.765625 25.4375 -13.765625 
Q 31.546875 -13.765625 34.859375 -11.328125 
Q 38.1875 -8.890625 39.359375 -4.5 
Q 40.046875 -1.8125 39.984375 6.78125 
Q 34.234375 0 25.640625 0 
Q 14.9375 0 9.078125 7.71875 
Q 3.21875 15.4375 3.21875 26.21875 
Q 3.21875 33.640625 5.90625 39.90625 
Q 8.59375 46.1875 13.6875 49.609375 
Q 18.796875 53.03125 25.6875 53.03125 
Q 34.859375 53.03125 40.828125 45.609375 
L 40.828125 51.859375 
L 48.921875 51.859375 
L 48.921875 7.03125 
Q 48.921875 -5.078125 46.453125 -10.125 
Q 44 -15.1875 38.640625 -18.109375 
Q 33.296875 -21.046875 25.484375 -21.046875 
Q 16.21875 -21.046875 10.5 -16.875 
Q 4.78125 -12.703125 4.984375 -4.296875 
z
M 12.25 26.859375 
Q 12.25 16.65625 16.296875 11.96875 
Q 20.359375 7.28125 26.46875 7.28125 
Q 32.515625 7.28125 36.609375 11.9375 
Q 40.71875 16.609375 40.71875 26.5625 
Q 40.71875 36.078125 36.5 40.90625 
Q 32.28125 45.75 26.3125 45.75 
Q 20.453125 45.75 16.34375 40.984375 
Q 12.25 36.234375 12.25 26.859375 
z
" id="ArialMT-103"/>
       <path d="M 42.09375 16.703125 
L 51.171875 15.578125 
Q 49.03125 7.625 43.21875 3.21875 
Q 37.40625 -1.171875 28.375 -1.171875 
Q 17 -1.171875 10.328125 5.828125 
Q 3.65625 12.84375 3.65625 25.484375 
Q 3.65625 38.578125 10.390625 45.796875 
Q 17.140625 53.03125 27.875 53.03125 
Q 38.28125 53.03125 44.875 45.953125 
Q 51.46875 38.875 51.46875 26.03125 
Q 51.46875 25.25 51.421875 23.6875 
L 12.75 23.6875 
Q 13.234375 15.140625 17.578125 10.59375 
Q 21.921875 6.0625 28.421875 6.0625 
Q 33.25 6.0625 36.671875 8.59375 
Q 40.09375 11.140625 42.09375 16.703125 
z
M 13.234375 30.90625 
L 42.1875 30.90625 
Q 41.609375 37.453125 38.875 40.71875 
Q 34.671875 45.796875 27.984375 45.796875 
Q 21.921875 45.796875 17.796875 41.75 
Q 13.671875 37.703125 13.234375 30.90625 
z
" id="ArialMT-101"/>
      </defs>
      <use xlink:href="#ArialMT-97"/>
      <use x="55.615234" xlink:href="#ArialMT-103"/>
      <use x="111.230469" xlink:href="#ArialMT-101"/>
     </g>
    </g>
   </g>
   <g id="matplotlib.axis_2">
    <g id="ytick_1">
     <g id="line2d_11">
      <path clip-path="url(#p8146f013cf)" d="M 48.675 391.2 
L 709.2 391.2 
" style="fill:none;stroke:#ffffff;stroke-linecap:round;"/>
     </g>
     <g id="line2d_12"/>
     <g id="text_7">
      <!-- 0 -->
      <g style="fill:#262626;" transform="translate(36.114062 394.778906)scale(0.1 -0.1)">
       <use xlink:href="#ArialMT-48"/>
      </g>
     </g>
    </g>
    <g id="ytick_2">
     <g id="line2d_13">
      <path clip-path="url(#p8146f013cf)" d="M 48.675 346.693155 
L 709.2 346.693155 
" style="fill:none;stroke:#ffffff;stroke-linecap:round;"/>
     </g>
     <g id="line2d_14"/>
     <g id="text_8">
      <!-- 50 -->
      <g style="fill:#262626;" transform="translate(30.553125 350.272062)scale(0.1 -0.1)">
       <defs>
        <path d="M 4.15625 18.75 
L 13.375 19.53125 
Q 14.40625 12.796875 18.140625 9.390625 
Q 21.875 6 27.15625 6 
Q 33.5 6 37.890625 10.78125 
Q 42.28125 15.578125 42.28125 23.484375 
Q 42.28125 31 38.0625 35.34375 
Q 33.84375 39.703125 27 39.703125 
Q 22.75 39.703125 19.328125 37.765625 
Q 15.921875 35.84375 13.96875 32.765625 
L 5.71875 33.84375 
L 12.640625 70.609375 
L 48.25 70.609375 
L 48.25 62.203125 
L 19.671875 62.203125 
L 15.828125 42.96875 
Q 22.265625 47.46875 29.34375 47.46875 
Q 38.71875 47.46875 45.15625 40.96875 
Q 51.609375 34.46875 51.609375 24.265625 
Q 51.609375 14.546875 45.953125 7.46875 
Q 39.0625 -1.21875 27.15625 -1.21875 
Q 17.390625 -1.21875 11.203125 4.25 
Q 5.03125 9.71875 4.15625 18.75 
z
" id="ArialMT-53"/>
       </defs>
       <use xlink:href="#ArialMT-53"/>
       <use x="55.615234" xlink:href="#ArialMT-48"/>
      </g>
     </g>
    </g>
    <g id="ytick_3">
     <g id="line2d_15">
      <path clip-path="url(#p8146f013cf)" d="M 48.675 302.186311 
L 709.2 302.186311 
" style="fill:none;stroke:#ffffff;stroke-linecap:round;"/>
     </g>
     <g id="line2d_16"/>
     <g id="text_9">
      <!-- 100 -->
      <g style="fill:#262626;" transform="translate(24.992187 305.765217)scale(0.1 -0.1)">
       <use xlink:href="#ArialMT-49"/>
       <use x="55.615234" xlink:href="#ArialMT-48"/>
       <use x="111.230469" xlink:href="#ArialMT-48"/>
      </g>
     </g>
    </g>
    <g id="ytick_4">
     <g id="line2d_17">
      <path clip-path="url(#p8146f013cf)" d="M 48.675 257.679466 
L 709.2 257.679466 
" style="fill:none;stroke:#ffffff;stroke-linecap:round;"/>
     </g>
     <g id="line2d_18"/>
     <g id="text_10">
      <!-- 150 -->
      <g style="fill:#262626;" transform="translate(24.992187 261.258373)scale(0.1 -0.1)">
       <use xlink:href="#ArialMT-49"/>
       <use x="55.615234" xlink:href="#ArialMT-53"/>
       <use x="111.230469" xlink:href="#ArialMT-48"/>
      </g>
     </g>
    </g>
    <g id="ytick_5">
     <g id="line2d_19">
      <path clip-path="url(#p8146f013cf)" d="M 48.675 213.172622 
L 709.2 213.172622 
" style="fill:none;stroke:#ffffff;stroke-linecap:round;"/>
     </g>
     <g id="line2d_20"/>
     <g id="text_11">
      <!-- 200 -->
      <g style="fill:#262626;" transform="translate(24.992187 216.751528)scale(0.1 -0.1)">
       <use xlink:href="#ArialMT-50"/>
       <use x="55.615234" xlink:href="#ArialMT-48"/>
       <use x="111.230469" xlink:href="#ArialMT-48"/>
      </g>
     </g>
    </g>
    <g id="ytick_6">
     <g id="line2d_21">
      <path clip-path="url(#p8146f013cf)" d="M 48.675 168.665777 
L 709.2 168.665777 
" style="fill:none;stroke:#ffffff;stroke-linecap:round;"/>
     </g>
     <g id="line2d_22"/>
     <g id="text_12">
      <!-- 250 -->
      <g style="fill:#262626;" transform="translate(24.992187 172.244684)scale(0.1 -0.1)">
       <use xlink:href="#ArialMT-50"/>
       <use x="55.615234" xlink:href="#ArialMT-53"/>
       <use x="111.230469" xlink:href="#ArialMT-48"/>
      </g>
     </g>
    </g>
    <g id="ytick_7">
     <g id="line2d_23">
      <path clip-path="url(#p8146f013cf)" d="M 48.675 124.158933 
L 709.2 124.158933 
" style="fill:none;stroke:#ffffff;stroke-linecap:round;"/>
     </g>
     <g id="line2d_24"/>
     <g id="text_13">
      <!-- 300 -->
      <g style="fill:#262626;" transform="translate(24.992187 127.737839)scale(0.1 -0.1)">
       <defs>
        <path d="M 4.203125 18.890625 
L 12.984375 20.0625 
Q 14.5 12.59375 18.140625 9.296875 
Q 21.78125 6 27 6 
Q 33.203125 6 37.46875 10.296875 
Q 41.75 14.59375 41.75 20.953125 
Q 41.75 27 37.796875 30.921875 
Q 33.84375 34.859375 27.734375 34.859375 
Q 25.25 34.859375 21.53125 33.890625 
L 22.515625 41.609375 
Q 23.390625 41.5 23.921875 41.5 
Q 29.546875 41.5 34.03125 44.421875 
Q 38.53125 47.359375 38.53125 53.46875 
Q 38.53125 58.296875 35.25 61.46875 
Q 31.984375 64.65625 26.8125 64.65625 
Q 21.6875 64.65625 18.265625 61.421875 
Q 14.84375 58.203125 13.875 51.765625 
L 5.078125 53.328125 
Q 6.6875 62.15625 12.390625 67.015625 
Q 18.109375 71.875 26.609375 71.875 
Q 32.46875 71.875 37.390625 69.359375 
Q 42.328125 66.84375 44.9375 62.5 
Q 47.5625 58.15625 47.5625 53.265625 
Q 47.5625 48.640625 45.0625 44.828125 
Q 42.578125 41.015625 37.703125 38.765625 
Q 44.046875 37.3125 47.5625 32.6875 
Q 51.078125 28.078125 51.078125 21.140625 
Q 51.078125 11.765625 44.234375 5.25 
Q 37.40625 -1.265625 26.953125 -1.265625 
Q 17.53125 -1.265625 11.296875 4.34375 
Q 5.078125 9.96875 4.203125 18.890625 
z
" id="ArialMT-51"/>
       </defs>
       <use xlink:href="#ArialMT-51"/>
       <use x="55.615234" xlink:href="#ArialMT-48"/>
       <use x="111.230469" xlink:href="#ArialMT-48"/>
      </g>
     </g>
    </g>
    <g id="ytick_8">
     <g id="line2d_25">
      <path clip-path="url(#p8146f013cf)" d="M 48.675 79.652088 
L 709.2 79.652088 
" style="fill:none;stroke:#ffffff;stroke-linecap:round;"/>
     </g>
     <g id="line2d_26"/>
     <g id="text_14">
      <!-- 350 -->
      <g style="fill:#262626;" transform="translate(24.992187 83.230995)scale(0.1 -0.1)">
       <use xlink:href="#ArialMT-51"/>
       <use x="55.615234" xlink:href="#ArialMT-53"/>
       <use x="111.230469" xlink:href="#ArialMT-48"/>
      </g>
     </g>
    </g>
    <g id="ytick_9">
     <g id="line2d_27">
      <path clip-path="url(#p8146f013cf)" d="M 48.675 35.145244 
L 709.2 35.145244 
" style="fill:none;stroke:#ffffff;stroke-linecap:round;"/>
     </g>
     <g id="line2d_28"/>
     <g id="text_15">
      <!-- 400 -->
      <g style="fill:#262626;" transform="translate(24.992187 38.72415)scale(0.1 -0.1)">
       <use xlink:href="#ArialMT-52"/>
       <use x="55.615234" xlink:href="#ArialMT-48"/>
       <use x="111.230469" xlink:href="#ArialMT-48"/>
      </g>
     </g>
    </g>
    <g id="text_16">
     <!-- Count -->
     <g style="fill:#262626;" transform="translate(18.805937 215.675547)rotate(-90)scale(0.11 -0.11)">
      <defs>
       <path d="M 58.796875 25.09375 
L 68.265625 22.703125 
Q 65.28125 11.03125 57.546875 4.90625 
Q 49.8125 -1.21875 38.625 -1.21875 
Q 27.046875 -1.21875 19.796875 3.484375 
Q 12.546875 8.203125 8.765625 17.140625 
Q 4.984375 26.078125 4.984375 36.328125 
Q 4.984375 47.515625 9.25 55.828125 
Q 13.53125 64.15625 21.40625 68.46875 
Q 29.296875 72.796875 38.765625 72.796875 
Q 49.515625 72.796875 56.828125 67.328125 
Q 64.15625 61.859375 67.046875 51.953125 
L 57.71875 49.75 
Q 55.21875 57.5625 50.484375 61.125 
Q 45.75 64.703125 38.578125 64.703125 
Q 30.328125 64.703125 24.78125 60.734375 
Q 19.234375 56.78125 16.984375 50.109375 
Q 14.75 43.453125 14.75 36.375 
Q 14.75 27.25 17.40625 20.4375 
Q 20.0625 13.625 25.671875 10.25 
Q 31.296875 6.890625 37.84375 6.890625 
Q 45.796875 6.890625 51.3125 11.46875 
Q 56.84375 16.0625 58.796875 25.09375 
z
" id="ArialMT-67"/>
       <path d="M 3.328125 25.921875 
Q 3.328125 40.328125 11.328125 47.265625 
Q 18.015625 53.03125 27.640625 53.03125 
Q 38.328125 53.03125 45.109375 46.015625 
Q 51.90625 39.015625 51.90625 26.65625 
Q 51.90625 16.65625 48.90625 10.90625 
Q 45.90625 5.171875 40.15625 2 
Q 34.421875 -1.171875 27.640625 -1.171875 
Q 16.75 -1.171875 10.03125 5.8125 
Q 3.328125 12.796875 3.328125 25.921875 
z
M 12.359375 25.921875 
Q 12.359375 15.96875 16.703125 11.015625 
Q 21.046875 6.0625 27.640625 6.0625 
Q 34.1875 6.0625 38.53125 11.03125 
Q 42.875 16.015625 42.875 26.21875 
Q 42.875 35.84375 38.5 40.796875 
Q 34.125 45.75 27.640625 45.75 
Q 21.046875 45.75 16.703125 40.8125 
Q 12.359375 35.890625 12.359375 25.921875 
z
" id="ArialMT-111"/>
       <path d="M 40.578125 0 
L 40.578125 7.625 
Q 34.515625 -1.171875 24.125 -1.171875 
Q 19.53125 -1.171875 15.546875 0.578125 
Q 11.578125 2.34375 9.640625 5 
Q 7.71875 7.671875 6.9375 11.53125 
Q 6.390625 14.109375 6.390625 19.734375 
L 6.390625 51.859375 
L 15.1875 51.859375 
L 15.1875 23.09375 
Q 15.1875 16.21875 15.71875 13.8125 
Q 16.546875 10.359375 19.234375 8.375 
Q 21.921875 6.390625 25.875 6.390625 
Q 29.828125 6.390625 33.296875 8.421875 
Q 36.765625 10.453125 38.203125 13.9375 
Q 39.65625 17.4375 39.65625 24.078125 
L 39.65625 51.859375 
L 48.4375 51.859375 
L 48.4375 0 
z
" id="ArialMT-117"/>
       <path d="M 6.59375 0 
L 6.59375 51.859375 
L 14.5 51.859375 
L 14.5 44.484375 
Q 20.21875 53.03125 31 53.03125 
Q 35.6875 53.03125 39.625 51.34375 
Q 43.5625 49.65625 45.515625 46.921875 
Q 47.46875 44.1875 48.25 40.4375 
Q 48.734375 37.984375 48.734375 31.890625 
L 48.734375 0 
L 39.9375 0 
L 39.9375 31.546875 
Q 39.9375 36.921875 38.90625 39.578125 
Q 37.890625 42.234375 35.28125 43.8125 
Q 32.671875 45.40625 29.15625 45.40625 
Q 23.53125 45.40625 19.453125 41.84375 
Q 15.375 38.28125 15.375 28.328125 
L 15.375 0 
z
" id="ArialMT-110"/>
       <path d="M 25.78125 7.859375 
L 27.046875 0.09375 
Q 23.34375 -0.6875 20.40625 -0.6875 
Q 15.625 -0.6875 12.984375 0.828125 
Q 10.359375 2.34375 9.28125 4.8125 
Q 8.203125 7.28125 8.203125 15.1875 
L 8.203125 45.015625 
L 1.765625 45.015625 
L 1.765625 51.859375 
L 8.203125 51.859375 
L 8.203125 64.703125 
L 16.9375 69.96875 
L 16.9375 51.859375 
L 25.78125 51.859375 
L 25.78125 45.015625 
L 16.9375 45.015625 
L 16.9375 14.703125 
Q 16.9375 10.9375 17.40625 9.859375 
Q 17.875 8.796875 18.921875 8.15625 
Q 19.96875 7.515625 21.921875 7.515625 
Q 23.390625 7.515625 25.78125 7.859375 
z
" id="ArialMT-116"/>
      </defs>
      <use xlink:href="#ArialMT-67"/>
      <use x="72.216797" xlink:href="#ArialMT-111"/>
      <use x="127.832031" xlink:href="#ArialMT-117"/>
      <use x="183.447266" xlink:href="#ArialMT-110"/>
      <use x="239.0625" xlink:href="#ArialMT-116"/>
     </g>
    </g>
   </g>
   <g id="patch_3">
    <path clip-path="url(#p8146f013cf)" d="M 78.698864 391.2 
L 92.663451 391.2 
L 92.663451 391.2 
L 78.698864 391.2 
z
" style="fill:#c44e52;fill-opacity:0.5;stroke:#000000;stroke-linejoin:miter;stroke-width:0.3;"/>
   </g>
   <g id="patch_4">
    <path clip-path="url(#p8146f013cf)" d="M 92.663451 391.2 
L 106.628039 391.2 
L 106.628039 384.969042 
L 92.663451 384.969042 
z
" style="fill:#c44e52;fill-opacity:0.5;stroke:#000000;stroke-linejoin:miter;stroke-width:0.3;"/>
   </g>
   <g id="patch_5">
    <path clip-path="url(#p8146f013cf)" d="M 106.628039 391.2 
L 120.592627 391.2 
L 120.592627 390.309863 
L 106.628039 390.309863 
z
" style="fill:#c44e52;fill-opacity:0.5;stroke:#000000;stroke-linejoin:miter;stroke-width:0.3;"/>
   </g>
   <g id="patch_6">
    <path clip-path="url(#p8146f013cf)" d="M 120.592627 391.2 
L 134.557215 391.2 
L 134.557215 389.419726 
L 120.592627 389.419726 
z
" style="fill:#c44e52;fill-opacity:0.5;stroke:#000000;stroke-linejoin:miter;stroke-width:0.3;"/>
   </g>
   <g id="patch_7">
    <path clip-path="url(#p8146f013cf)" d="M 134.557215 391.2 
L 148.521802 391.2 
L 148.521802 389.419726 
L 134.557215 389.419726 
z
" style="fill:#c44e52;fill-opacity:0.5;stroke:#000000;stroke-linejoin:miter;stroke-width:0.3;"/>
   </g>
   <g id="patch_8">
    <path clip-path="url(#p8146f013cf)" d="M 148.521802 391.2 
L 162.48639 391.2 
L 162.48639 387.639452 
L 148.521802 387.639452 
z
" style="fill:#c44e52;fill-opacity:0.5;stroke:#000000;stroke-linejoin:miter;stroke-width:0.3;"/>
   </g>
   <g id="patch_9">
    <path clip-path="url(#p8146f013cf)" d="M 162.48639 391.2 
L 176.450978 391.2 
L 176.450978 387.639452 
L 162.48639 387.639452 
z
" style="fill:#c44e52;fill-opacity:0.5;stroke:#000000;stroke-linejoin:miter;stroke-width:0.3;"/>
   </g>
   <g id="patch_10">
    <path clip-path="url(#p8146f013cf)" d="M 176.450978 391.2 
L 190.415566 391.2 
L 190.415566 386.749316 
L 176.450978 386.749316 
z
" style="fill:#c44e52;fill-opacity:0.5;stroke:#000000;stroke-linejoin:miter;stroke-width:0.3;"/>
   </g>
   <g id="patch_11">
    <path clip-path="url(#p8146f013cf)" d="M 190.415566 391.2 
L 204.380153 391.2 
L 204.380153 387.639452 
L 190.415566 387.639452 
z
" style="fill:#c44e52;fill-opacity:0.5;stroke:#000000;stroke-linejoin:miter;stroke-width:0.3;"/>
   </g>
   <g id="patch_12">
    <path clip-path="url(#p8146f013cf)" d="M 204.380153 391.2 
L 218.344741 391.2 
L 218.344741 389.419726 
L 204.380153 389.419726 
z
" style="fill:#c44e52;fill-opacity:0.5;stroke:#000000;stroke-linejoin:miter;stroke-width:0.3;"/>
   </g>
   <g id="patch_13">
    <path clip-path="url(#p8146f013cf)" d="M 218.344741 391.2 
L 232.309329 391.2 
L 232.309329 384.078905 
L 218.344741 384.078905 
z
" style="fill:#c44e52;fill-opacity:0.5;stroke:#000000;stroke-linejoin:miter;stroke-width:0.3;"/>
   </g>
   <g id="patch_14">
    <path clip-path="url(#p8146f013cf)" d="M 232.309329 391.2 
L 246.273916 391.2 
L 246.273916 384.078905 
L 232.309329 384.078905 
z
" style="fill:#c44e52;fill-opacity:0.5;stroke:#000000;stroke-linejoin:miter;stroke-width:0.3;"/>
   </g>
   <g id="patch_15">
    <path clip-path="url(#p8146f013cf)" d="M 246.273916 391.2 
L 260.238504 391.2 
L 260.238504 384.078905 
L 246.273916 384.078905 
z
" style="fill:#c44e52;fill-opacity:0.5;stroke:#000000;stroke-linejoin:miter;stroke-width:0.3;"/>
   </g>
   <g id="patch_16">
    <path clip-path="url(#p8146f013cf)" d="M 260.238504 391.2 
L 274.203092 391.2 
L 274.203092 389.419726 
L 260.238504 389.419726 
z
" style="fill:#c44e52;fill-opacity:0.5;stroke:#000000;stroke-linejoin:miter;stroke-width:0.3;"/>
   </g>
   <g id="patch_17">
    <path clip-path="url(#p8146f013cf)" d="M 274.203092 391.2 
L 288.16768 391.2 
L 288.16768 389.419726 
L 274.203092 389.419726 
z
" style="fill:#c44e52;fill-opacity:0.5;stroke:#000000;stroke-linejoin:miter;stroke-width:0.3;"/>
   </g>
   <g id="patch_18">
    <path clip-path="url(#p8146f013cf)" d="M 288.16768 391.2 
L 302.132267 391.2 
L 302.132267 382.298631 
L 288.16768 382.298631 
z
" style="fill:#c44e52;fill-opacity:0.5;stroke:#000000;stroke-linejoin:miter;stroke-width:0.3;"/>
   </g>
   <g id="patch_19">
    <path clip-path="url(#p8146f013cf)" d="M 302.132267 391.2 
L 316.096855 391.2 
L 316.096855 381.408494 
L 302.132267 381.408494 
z
" style="fill:#c44e52;fill-opacity:0.5;stroke:#000000;stroke-linejoin:miter;stroke-width:0.3;"/>
   </g>
   <g id="patch_20">
    <path clip-path="url(#p8146f013cf)" d="M 316.096855 391.2 
L 330.061443 391.2 
L 330.061443 379.62822 
L 316.096855 379.62822 
z
" style="fill:#c44e52;fill-opacity:0.5;stroke:#000000;stroke-linejoin:miter;stroke-width:0.3;"/>
   </g>
   <g id="patch_21">
    <path clip-path="url(#p8146f013cf)" d="M 330.061443 391.2 
L 344.026031 391.2 
L 344.026031 381.408494 
L 330.061443 381.408494 
z
" style="fill:#c44e52;fill-opacity:0.5;stroke:#000000;stroke-linejoin:miter;stroke-width:0.3;"/>
   </g>
   <g id="patch_22">
    <path clip-path="url(#p8146f013cf)" d="M 344.026031 391.2 
L 357.990618 391.2 
L 357.990618 378.738084 
L 344.026031 378.738084 
z
" style="fill:#c44e52;fill-opacity:0.5;stroke:#000000;stroke-linejoin:miter;stroke-width:0.3;"/>
   </g>
   <g id="patch_23">
    <path clip-path="url(#p8146f013cf)" d="M 357.990618 391.2 
L 371.955206 391.2 
L 371.955206 380.518357 
L 357.990618 380.518357 
z
" style="fill:#c44e52;fill-opacity:0.5;stroke:#000000;stroke-linejoin:miter;stroke-width:0.3;"/>
   </g>
   <g id="patch_24">
    <path clip-path="url(#p8146f013cf)" d="M 371.955206 391.2 
L 385.919794 391.2 
L 385.919794 379.62822 
L 371.955206 379.62822 
z
" style="fill:#c44e52;fill-opacity:0.5;stroke:#000000;stroke-linejoin:miter;stroke-width:0.3;"/>
   </g>
   <g id="patch_25">
    <path clip-path="url(#p8146f013cf)" d="M 385.919794 391.2 
L 399.884382 391.2 
L 399.884382 385.859179 
L 385.919794 385.859179 
z
" style="fill:#c44e52;fill-opacity:0.5;stroke:#000000;stroke-linejoin:miter;stroke-width:0.3;"/>
   </g>
   <g id="patch_26">
    <path clip-path="url(#p8146f013cf)" d="M 399.884382 391.2 
L 413.848969 391.2 
L 413.848969 385.859179 
L 399.884382 385.859179 
z
" style="fill:#c44e52;fill-opacity:0.5;stroke:#000000;stroke-linejoin:miter;stroke-width:0.3;"/>
   </g>
   <g id="patch_27">
    <path clip-path="url(#p8146f013cf)" d="M 413.848969 391.2 
L 427.813557 391.2 
L 427.813557 386.749316 
L 413.848969 386.749316 
z
" style="fill:#c44e52;fill-opacity:0.5;stroke:#000000;stroke-linejoin:miter;stroke-width:0.3;"/>
   </g>
   <g id="patch_28">
    <path clip-path="url(#p8146f013cf)" d="M 427.813557 391.2 
L 441.778145 391.2 
L 441.778145 380.518357 
L 427.813557 380.518357 
z
" style="fill:#c44e52;fill-opacity:0.5;stroke:#000000;stroke-linejoin:miter;stroke-width:0.3;"/>
   </g>
   <g id="patch_29">
    <path clip-path="url(#p8146f013cf)" d="M 441.778145 391.2 
L 455.742733 391.2 
L 455.742733 386.749316 
L 441.778145 386.749316 
z
" style="fill:#c44e52;fill-opacity:0.5;stroke:#000000;stroke-linejoin:miter;stroke-width:0.3;"/>
   </g>
   <g id="patch_30">
    <path clip-path="url(#p8146f013cf)" d="M 455.742733 391.2 
L 469.70732 391.2 
L 469.70732 388.529589 
L 455.742733 388.529589 
z
" style="fill:#c44e52;fill-opacity:0.5;stroke:#000000;stroke-linejoin:miter;stroke-width:0.3;"/>
   </g>
   <g id="patch_31">
    <path clip-path="url(#p8146f013cf)" d="M 469.70732 391.2 
L 483.671908 391.2 
L 483.671908 385.859179 
L 469.70732 385.859179 
z
" style="fill:#c44e52;fill-opacity:0.5;stroke:#000000;stroke-linejoin:miter;stroke-width:0.3;"/>
   </g>
   <g id="patch_32">
    <path clip-path="url(#p8146f013cf)" d="M 483.671908 391.2 
L 497.636496 391.2 
L 497.636496 386.749316 
L 483.671908 386.749316 
z
" style="fill:#c44e52;fill-opacity:0.5;stroke:#000000;stroke-linejoin:miter;stroke-width:0.3;"/>
   </g>
   <g id="patch_33">
    <path clip-path="url(#p8146f013cf)" d="M 497.636496 391.2 
L 511.601084 391.2 
L 511.601084 384.969042 
L 497.636496 384.969042 
z
" style="fill:#c44e52;fill-opacity:0.5;stroke:#000000;stroke-linejoin:miter;stroke-width:0.3;"/>
   </g>
   <g id="patch_34">
    <path clip-path="url(#p8146f013cf)" d="M 511.601084 391.2 
L 525.565671 391.2 
L 525.565671 390.309863 
L 511.601084 390.309863 
z
" style="fill:#c44e52;fill-opacity:0.5;stroke:#000000;stroke-linejoin:miter;stroke-width:0.3;"/>
   </g>
   <g id="patch_35">
    <path clip-path="url(#p8146f013cf)" d="M 525.565671 391.2 
L 539.530259 391.2 
L 539.530259 388.529589 
L 525.565671 388.529589 
z
" style="fill:#c44e52;fill-opacity:0.5;stroke:#000000;stroke-linejoin:miter;stroke-width:0.3;"/>
   </g>
   <g id="patch_36">
    <path clip-path="url(#p8146f013cf)" d="M 539.530259 391.2 
L 553.494847 391.2 
L 553.494847 389.419726 
L 539.530259 389.419726 
z
" style="fill:#c44e52;fill-opacity:0.5;stroke:#000000;stroke-linejoin:miter;stroke-width:0.3;"/>
   </g>
   <g id="patch_37">
    <path clip-path="url(#p8146f013cf)" d="M 553.494847 391.2 
L 567.459434 391.2 
L 567.459434 388.529589 
L 553.494847 388.529589 
z
" style="fill:#c44e52;fill-opacity:0.5;stroke:#000000;stroke-linejoin:miter;stroke-width:0.3;"/>
   </g>
   <g id="patch_38">
    <path clip-path="url(#p8146f013cf)" d="M 567.459434 391.2 
L 581.424022 391.2 
L 581.424022 391.2 
L 567.459434 391.2 
z
" style="fill:#c44e52;fill-opacity:0.5;stroke:#000000;stroke-linejoin:miter;stroke-width:0.3;"/>
   </g>
   <g id="patch_39">
    <path clip-path="url(#p8146f013cf)" d="M 581.424022 391.2 
L 595.38861 391.2 
L 595.38861 389.419726 
L 581.424022 389.419726 
z
" style="fill:#c44e52;fill-opacity:0.5;stroke:#000000;stroke-linejoin:miter;stroke-width:0.3;"/>
   </g>
   <g id="patch_40">
    <path clip-path="url(#p8146f013cf)" d="M 595.38861 391.2 
L 609.353198 391.2 
L 609.353198 390.309863 
L 595.38861 390.309863 
z
" style="fill:#c44e52;fill-opacity:0.5;stroke:#000000;stroke-linejoin:miter;stroke-width:0.3;"/>
   </g>
   <g id="patch_41">
    <path clip-path="url(#p8146f013cf)" d="M 609.353198 391.2 
L 623.317785 391.2 
L 623.317785 390.309863 
L 609.353198 390.309863 
z
" style="fill:#c44e52;fill-opacity:0.5;stroke:#000000;stroke-linejoin:miter;stroke-width:0.3;"/>
   </g>
   <g id="patch_42">
    <path clip-path="url(#p8146f013cf)" d="M 623.317785 391.2 
L 637.282373 391.2 
L 637.282373 391.2 
L 623.317785 391.2 
z
" style="fill:#c44e52;fill-opacity:0.5;stroke:#000000;stroke-linejoin:miter;stroke-width:0.3;"/>
   </g>
   <g id="patch_43">
    <path clip-path="url(#p8146f013cf)" d="M 637.282373 391.2 
L 651.246961 391.2 
L 651.246961 391.2 
L 637.282373 391.2 
z
" style="fill:#c44e52;fill-opacity:0.5;stroke:#000000;stroke-linejoin:miter;stroke-width:0.3;"/>
   </g>
   <g id="patch_44">
    <path clip-path="url(#p8146f013cf)" d="M 651.246961 391.2 
L 665.211549 391.2 
L 665.211549 391.2 
L 651.246961 391.2 
z
" style="fill:#c44e52;fill-opacity:0.5;stroke:#000000;stroke-linejoin:miter;stroke-width:0.3;"/>
   </g>
   <g id="patch_45">
    <path clip-path="url(#p8146f013cf)" d="M 665.211549 391.2 
L 679.176136 391.2 
L 679.176136 390.309863 
L 665.211549 390.309863 
z
" style="fill:#c44e52;fill-opacity:0.5;stroke:#000000;stroke-linejoin:miter;stroke-width:0.3;"/>
   </g>
   <g id="patch_46">
    <path clip-path="url(#p8146f013cf)" d="M 78.698864 391.2 
L 92.663451 391.2 
L 92.663451 248.778098 
L 78.698864 248.778098 
z
" style="fill:#55a868;fill-opacity:0.5;stroke:#000000;stroke-linejoin:miter;stroke-width:0.3;"/>
   </g>
   <g id="patch_47">
    <path clip-path="url(#p8146f013cf)" d="M 92.663451 391.2 
L 106.628039 391.2 
L 106.628039 220.293717 
L 92.663451 220.293717 
z
" style="fill:#55a868;fill-opacity:0.5;stroke:#000000;stroke-linejoin:miter;stroke-width:0.3;"/>
   </g>
   <g id="patch_48">
    <path clip-path="url(#p8146f013cf)" d="M 106.628039 391.2 
L 120.592627 391.2 
L 120.592627 231.865497 
L 106.628039 231.865497 
z
" style="fill:#55a868;fill-opacity:0.5;stroke:#000000;stroke-linejoin:miter;stroke-width:0.3;"/>
   </g>
   <g id="patch_49">
    <path clip-path="url(#p8146f013cf)" d="M 120.592627 391.2 
L 134.557215 391.2 
L 134.557215 214.952896 
L 120.592627 214.952896 
z
" style="fill:#55a868;fill-opacity:0.5;stroke:#000000;stroke-linejoin:miter;stroke-width:0.3;"/>
   </g>
   <g id="patch_50">
    <path clip-path="url(#p8146f013cf)" d="M 134.557215 391.2 
L 148.521802 391.2 
L 148.521802 200.710706 
L 134.557215 200.710706 
z
" style="fill:#55a868;fill-opacity:0.5;stroke:#000000;stroke-linejoin:miter;stroke-width:0.3;"/>
   </g>
   <g id="patch_51">
    <path clip-path="url(#p8146f013cf)" d="M 148.521802 391.2 
L 162.48639 391.2 
L 162.48639 233.64577 
L 148.521802 233.64577 
z
" style="fill:#55a868;fill-opacity:0.5;stroke:#000000;stroke-linejoin:miter;stroke-width:0.3;"/>
   </g>
   <g id="patch_52">
    <path clip-path="url(#p8146f013cf)" d="M 162.48639 391.2 
L 176.450978 391.2 
L 176.450978 234.535907 
L 162.48639 234.535907 
z
" style="fill:#55a868;fill-opacity:0.5;stroke:#000000;stroke-linejoin:miter;stroke-width:0.3;"/>
   </g>
   <g id="patch_53">
    <path clip-path="url(#p8146f013cf)" d="M 176.450978 391.2 
L 190.415566 391.2 
L 190.415566 221.183854 
L 176.450978 221.183854 
z
" style="fill:#55a868;fill-opacity:0.5;stroke:#000000;stroke-linejoin:miter;stroke-width:0.3;"/>
   </g>
   <g id="patch_54">
    <path clip-path="url(#p8146f013cf)" d="M 190.415566 391.2 
L 204.380153 391.2 
L 204.380153 238.096455 
L 190.415566 238.096455 
z
" style="fill:#55a868;fill-opacity:0.5;stroke:#000000;stroke-linejoin:miter;stroke-width:0.3;"/>
   </g>
   <g id="patch_55">
    <path clip-path="url(#p8146f013cf)" d="M 204.380153 391.2 
L 218.344741 391.2 
L 218.344741 167.775641 
L 204.380153 167.775641 
z
" style="fill:#55a868;fill-opacity:0.5;stroke:#000000;stroke-linejoin:miter;stroke-width:0.3;"/>
   </g>
   <g id="patch_56">
    <path clip-path="url(#p8146f013cf)" d="M 218.344741 391.2 
L 232.309329 391.2 
L 232.309329 197.150158 
L 218.344741 197.150158 
z
" style="fill:#55a868;fill-opacity:0.5;stroke:#000000;stroke-linejoin:miter;stroke-width:0.3;"/>
   </g>
   <g id="patch_57">
    <path clip-path="url(#p8146f013cf)" d="M 232.309329 391.2 
L 246.273916 391.2 
L 246.273916 164.215093 
L 232.309329 164.215093 
z
" style="fill:#55a868;fill-opacity:0.5;stroke:#000000;stroke-linejoin:miter;stroke-width:0.3;"/>
   </g>
   <g id="patch_58">
    <path clip-path="url(#p8146f013cf)" d="M 246.273916 391.2 
L 260.238504 391.2 
L 260.238504 125.04907 
L 246.273916 125.04907 
z
" style="fill:#55a868;fill-opacity:0.5;stroke:#000000;stroke-linejoin:miter;stroke-width:0.3;"/>
   </g>
   <g id="patch_59">
    <path clip-path="url(#p8146f013cf)" d="M 260.238504 391.2 
L 274.203092 391.2 
L 274.203092 154.423587 
L 260.238504 154.423587 
z
" style="fill:#55a868;fill-opacity:0.5;stroke:#000000;stroke-linejoin:miter;stroke-width:0.3;"/>
   </g>
   <g id="patch_60">
    <path clip-path="url(#p8146f013cf)" d="M 274.203092 391.2 
L 288.16768 391.2 
L 288.16768 270.141383 
L 274.203092 270.141383 
z
" style="fill:#55a868;fill-opacity:0.5;stroke:#000000;stroke-linejoin:miter;stroke-width:0.3;"/>
   </g>
   <g id="patch_61">
    <path clip-path="url(#p8146f013cf)" d="M 288.16768 391.2 
L 302.132267 391.2 
L 302.132267 116.147701 
L 288.16768 116.147701 
z
" style="fill:#55a868;fill-opacity:0.5;stroke:#000000;stroke-linejoin:miter;stroke-width:0.3;"/>
   </g>
   <g id="patch_62">
    <path clip-path="url(#p8146f013cf)" d="M 302.132267 391.2 
L 316.096855 391.2 
L 316.096855 104.575921 
L 302.132267 104.575921 
z
" style="fill:#55a868;fill-opacity:0.5;stroke:#000000;stroke-linejoin:miter;stroke-width:0.3;"/>
   </g>
   <g id="patch_63">
    <path clip-path="url(#p8146f013cf)" d="M 316.096855 391.2 
L 330.061443 391.2 
L 330.061443 36.925518 
L 316.096855 36.925518 
z
" style="fill:#55a868;fill-opacity:0.5;stroke:#000000;stroke-linejoin:miter;stroke-width:0.3;"/>
   </g>
   <g id="patch_64">
    <path clip-path="url(#p8146f013cf)" d="M 330.061443 391.2 
L 344.026031 391.2 
L 344.026031 28.914286 
L 330.061443 28.914286 
z
" style="fill:#55a868;fill-opacity:0.5;stroke:#000000;stroke-linejoin:miter;stroke-width:0.3;"/>
   </g>
   <g id="patch_65">
    <path clip-path="url(#p8146f013cf)" d="M 344.026031 391.2 
L 357.990618 391.2 
L 357.990618 53.838119 
L 344.026031 53.838119 
z
" style="fill:#55a868;fill-opacity:0.5;stroke:#000000;stroke-linejoin:miter;stroke-width:0.3;"/>
   </g>
   <g id="patch_66">
    <path clip-path="url(#p8146f013cf)" d="M 357.990618 391.2 
L 371.955206 391.2 
L 371.955206 41.376202 
L 357.990618 41.376202 
z
" style="fill:#55a868;fill-opacity:0.5;stroke:#000000;stroke-linejoin:miter;stroke-width:0.3;"/>
   </g>
   <g id="patch_67">
    <path clip-path="url(#p8146f013cf)" d="M 371.955206 391.2 
L 385.919794 391.2 
L 385.919794 56.508529 
L 371.955206 56.508529 
z
" style="fill:#55a868;fill-opacity:0.5;stroke:#000000;stroke-linejoin:miter;stroke-width:0.3;"/>
   </g>
   <g id="patch_68">
    <path clip-path="url(#p8146f013cf)" d="M 385.919794 391.2 
L 399.884382 391.2 
L 399.884382 93.894279 
L 385.919794 93.894279 
z
" style="fill:#55a868;fill-opacity:0.5;stroke:#000000;stroke-linejoin:miter;stroke-width:0.3;"/>
   </g>
   <g id="patch_69">
    <path clip-path="url(#p8146f013cf)" d="M 399.884382 391.2 
L 413.848969 391.2 
L 413.848969 89.443594 
L 399.884382 89.443594 
z
" style="fill:#55a868;fill-opacity:0.5;stroke:#000000;stroke-linejoin:miter;stroke-width:0.3;"/>
   </g>
   <g id="patch_70">
    <path clip-path="url(#p8146f013cf)" d="M 413.848969 391.2 
L 427.813557 391.2 
L 427.813557 111.697016 
L 413.848969 111.697016 
z
" style="fill:#55a868;fill-opacity:0.5;stroke:#000000;stroke-linejoin:miter;stroke-width:0.3;"/>
   </g>
   <g id="patch_71">
    <path clip-path="url(#p8146f013cf)" d="M 427.813557 391.2 
L 441.778145 391.2 
L 441.778145 121.488522 
L 427.813557 121.488522 
z
" style="fill:#55a868;fill-opacity:0.5;stroke:#000000;stroke-linejoin:miter;stroke-width:0.3;"/>
   </g>
   <g id="patch_72">
    <path clip-path="url(#p8146f013cf)" d="M 441.778145 391.2 
L 455.742733 391.2 
L 455.742733 160.654545 
L 441.778145 160.654545 
z
" style="fill:#55a868;fill-opacity:0.5;stroke:#000000;stroke-linejoin:miter;stroke-width:0.3;"/>
   </g>
   <g id="patch_73">
    <path clip-path="url(#p8146f013cf)" d="M 455.742733 391.2 
L 469.70732 391.2 
L 469.70732 183.798105 
L 455.742733 183.798105 
z
" style="fill:#55a868;fill-opacity:0.5;stroke:#000000;stroke-linejoin:miter;stroke-width:0.3;"/>
   </g>
   <g id="patch_74">
    <path clip-path="url(#p8146f013cf)" d="M 469.70732 391.2 
L 483.671908 391.2 
L 483.671908 295.065216 
L 469.70732 295.065216 
z
" style="fill:#55a868;fill-opacity:0.5;stroke:#000000;stroke-linejoin:miter;stroke-width:0.3;"/>
   </g>
   <g id="patch_75">
    <path clip-path="url(#p8146f013cf)" d="M 483.671908 391.2 
L 497.636496 391.2 
L 497.636496 239.876729 
L 483.671908 239.876729 
z
" style="fill:#55a868;fill-opacity:0.5;stroke:#000000;stroke-linejoin:miter;stroke-width:0.3;"/>
   </g>
   <g id="patch_76">
    <path clip-path="url(#p8146f013cf)" d="M 497.636496 391.2 
L 511.601084 391.2 
L 511.601084 246.107687 
L 497.636496 246.107687 
z
" style="fill:#55a868;fill-opacity:0.5;stroke:#000000;stroke-linejoin:miter;stroke-width:0.3;"/>
   </g>
   <g id="patch_77">
    <path clip-path="url(#p8146f013cf)" d="M 511.601084 391.2 
L 525.565671 391.2 
L 525.565671 281.713163 
L 511.601084 281.713163 
z
" style="fill:#55a868;fill-opacity:0.5;stroke:#000000;stroke-linejoin:miter;stroke-width:0.3;"/>
   </g>
   <g id="patch_78">
    <path clip-path="url(#p8146f013cf)" d="M 525.565671 391.2 
L 539.530259 391.2 
L 539.530259 292.394805 
L 525.565671 292.394805 
z
" style="fill:#55a868;fill-opacity:0.5;stroke:#000000;stroke-linejoin:miter;stroke-width:0.3;"/>
   </g>
   <g id="patch_79">
    <path clip-path="url(#p8146f013cf)" d="M 539.530259 391.2 
L 553.494847 391.2 
L 553.494847 303.966585 
L 539.530259 303.966585 
z
" style="fill:#55a868;fill-opacity:0.5;stroke:#000000;stroke-linejoin:miter;stroke-width:0.3;"/>
   </g>
   <g id="patch_80">
    <path clip-path="url(#p8146f013cf)" d="M 553.494847 391.2 
L 567.459434 391.2 
L 567.459434 331.560828 
L 553.494847 331.560828 
z
" style="fill:#55a868;fill-opacity:0.5;stroke:#000000;stroke-linejoin:miter;stroke-width:0.3;"/>
   </g>
   <g id="patch_81">
    <path clip-path="url(#p8146f013cf)" d="M 567.459434 391.2 
L 581.424022 391.2 
L 581.424022 344.022745 
L 567.459434 344.022745 
z
" style="fill:#55a868;fill-opacity:0.5;stroke:#000000;stroke-linejoin:miter;stroke-width:0.3;"/>
   </g>
   <g id="patch_82">
    <path clip-path="url(#p8146f013cf)" d="M 581.424022 391.2 
L 595.38861 391.2 
L 595.38861 353.814251 
L 581.424022 353.814251 
z
" style="fill:#55a868;fill-opacity:0.5;stroke:#000000;stroke-linejoin:miter;stroke-width:0.3;"/>
   </g>
   <g id="patch_83">
    <path clip-path="url(#p8146f013cf)" d="M 595.38861 391.2 
L 609.353198 391.2 
L 609.353198 355.594524 
L 595.38861 355.594524 
z
" style="fill:#55a868;fill-opacity:0.5;stroke:#000000;stroke-linejoin:miter;stroke-width:0.3;"/>
   </g>
   <g id="patch_84">
    <path clip-path="url(#p8146f013cf)" d="M 609.353198 391.2 
L 623.317785 391.2 
L 623.317785 370.726852 
L 609.353198 370.726852 
z
" style="fill:#55a868;fill-opacity:0.5;stroke:#000000;stroke-linejoin:miter;stroke-width:0.3;"/>
   </g>
   <g id="patch_85">
    <path clip-path="url(#p8146f013cf)" d="M 623.317785 391.2 
L 637.282373 391.2 
L 637.282373 372.507125 
L 623.317785 372.507125 
z
" style="fill:#55a868;fill-opacity:0.5;stroke:#000000;stroke-linejoin:miter;stroke-width:0.3;"/>
   </g>
   <g id="patch_86">
    <path clip-path="url(#p8146f013cf)" d="M 637.282373 391.2 
L 651.246961 391.2 
L 651.246961 383.188768 
L 637.282373 383.188768 
z
" style="fill:#55a868;fill-opacity:0.5;stroke:#000000;stroke-linejoin:miter;stroke-width:0.3;"/>
   </g>
   <g id="patch_87">
    <path clip-path="url(#p8146f013cf)" d="M 651.246961 391.2 
L 665.211549 391.2 
L 665.211549 387.639452 
L 651.246961 387.639452 
z
" style="fill:#55a868;fill-opacity:0.5;stroke:#000000;stroke-linejoin:miter;stroke-width:0.3;"/>
   </g>
   <g id="patch_88">
    <path clip-path="url(#p8146f013cf)" d="M 665.211549 391.2 
L 679.176136 391.2 
L 679.176136 389.419726 
L 665.211549 389.419726 
z
" style="fill:#55a868;fill-opacity:0.5;stroke:#000000;stroke-linejoin:miter;stroke-width:0.3;"/>
   </g>
   <g id="patch_89">
    <path clip-path="url(#p8146f013cf)" d="M 78.698864 391.2 
L 92.663451 391.2 
L 92.663451 351.14384 
L 78.698864 351.14384 
z
" style="fill:#4c72b0;fill-opacity:0.5;stroke:#000000;stroke-linejoin:miter;stroke-width:0.3;"/>
   </g>
   <g id="patch_90">
    <path clip-path="url(#p8146f013cf)" d="M 92.663451 391.2 
L 106.628039 391.2 
L 106.628039 323.549596 
L 92.663451 323.549596 
z
" style="fill:#4c72b0;fill-opacity:0.5;stroke:#000000;stroke-linejoin:miter;stroke-width:0.3;"/>
   </g>
   <g id="patch_91">
    <path clip-path="url(#p8146f013cf)" d="M 106.628039 391.2 
L 120.592627 391.2 
L 120.592627 322.659459 
L 106.628039 322.659459 
z
" style="fill:#4c72b0;fill-opacity:0.5;stroke:#000000;stroke-linejoin:miter;stroke-width:0.3;"/>
   </g>
   <g id="patch_92">
    <path clip-path="url(#p8146f013cf)" d="M 120.592627 391.2 
L 134.557215 391.2 
L 134.557215 324.439733 
L 120.592627 324.439733 
z
" style="fill:#4c72b0;fill-opacity:0.5;stroke:#000000;stroke-linejoin:miter;stroke-width:0.3;"/>
   </g>
   <g id="patch_93">
    <path clip-path="url(#p8146f013cf)" d="M 134.557215 391.2 
L 148.521802 391.2 
L 148.521802 319.989049 
L 134.557215 319.989049 
z
" style="fill:#4c72b0;fill-opacity:0.5;stroke:#000000;stroke-linejoin:miter;stroke-width:0.3;"/>
   </g>
   <g id="patch_94">
    <path clip-path="url(#p8146f013cf)" d="M 148.521802 391.2 
L 162.48639 391.2 
L 162.48639 315.538364 
L 148.521802 315.538364 
z
" style="fill:#4c72b0;fill-opacity:0.5;stroke:#000000;stroke-linejoin:miter;stroke-width:0.3;"/>
   </g>
   <g id="patch_95">
    <path clip-path="url(#p8146f013cf)" d="M 162.48639 391.2 
L 176.450978 391.2 
L 176.450978 334.231239 
L 162.48639 334.231239 
z
" style="fill:#4c72b0;fill-opacity:0.5;stroke:#000000;stroke-linejoin:miter;stroke-width:0.3;"/>
   </g>
   <g id="patch_96">
    <path clip-path="url(#p8146f013cf)" d="M 176.450978 391.2 
L 190.415566 391.2 
L 190.415566 306.636995 
L 176.450978 306.636995 
z
" style="fill:#4c72b0;fill-opacity:0.5;stroke:#000000;stroke-linejoin:miter;stroke-width:0.3;"/>
   </g>
   <g id="patch_97">
    <path clip-path="url(#p8146f013cf)" d="M 190.415566 391.2 
L 204.380153 391.2 
L 204.380153 311.977817 
L 190.415566 311.977817 
z
" style="fill:#4c72b0;fill-opacity:0.5;stroke:#000000;stroke-linejoin:miter;stroke-width:0.3;"/>
   </g>
   <g id="patch_98">
    <path clip-path="url(#p8146f013cf)" d="M 204.380153 391.2 
L 218.344741 391.2 
L 218.344741 285.27371 
L 204.380153 285.27371 
z
" style="fill:#4c72b0;fill-opacity:0.5;stroke:#000000;stroke-linejoin:miter;stroke-width:0.3;"/>
   </g>
   <g id="patch_99">
    <path clip-path="url(#p8146f013cf)" d="M 218.344741 391.2 
L 232.309329 391.2 
L 232.309329 277.262478 
L 218.344741 277.262478 
z
" style="fill:#4c72b0;fill-opacity:0.5;stroke:#000000;stroke-linejoin:miter;stroke-width:0.3;"/>
   </g>
   <g id="patch_100">
    <path clip-path="url(#p8146f013cf)" d="M 232.309329 391.2 
L 246.273916 391.2 
L 246.273916 277.262478 
L 232.309329 277.262478 
z
" style="fill:#4c72b0;fill-opacity:0.5;stroke:#000000;stroke-linejoin:miter;stroke-width:0.3;"/>
   </g>
   <g id="patch_101">
    <path clip-path="url(#p8146f013cf)" d="M 246.273916 391.2 
L 260.238504 391.2 
L 260.238504 271.03152 
L 246.273916 271.03152 
z
" style="fill:#4c72b0;fill-opacity:0.5;stroke:#000000;stroke-linejoin:miter;stroke-width:0.3;"/>
   </g>
   <g id="patch_102">
    <path clip-path="url(#p8146f013cf)" d="M 260.238504 391.2 
L 274.203092 391.2 
L 274.203092 253.228782 
L 260.238504 253.228782 
z
" style="fill:#4c72b0;fill-opacity:0.5;stroke:#000000;stroke-linejoin:miter;stroke-width:0.3;"/>
   </g>
   <g id="patch_103">
    <path clip-path="url(#p8146f013cf)" d="M 274.203092 391.2 
L 288.16768 391.2 
L 288.16768 325.32987 
L 274.203092 325.32987 
z
" style="fill:#4c72b0;fill-opacity:0.5;stroke:#000000;stroke-linejoin:miter;stroke-width:0.3;"/>
   </g>
   <g id="patch_104">
    <path clip-path="url(#p8146f013cf)" d="M 288.16768 391.2 
L 302.132267 391.2 
L 302.132267 212.282485 
L 288.16768 212.282485 
z
" style="fill:#4c72b0;fill-opacity:0.5;stroke:#000000;stroke-linejoin:miter;stroke-width:0.3;"/>
   </g>
   <g id="patch_105">
    <path clip-path="url(#p8146f013cf)" d="M 302.132267 391.2 
L 316.096855 391.2 
L 316.096855 149.082766 
L 302.132267 149.082766 
z
" style="fill:#4c72b0;fill-opacity:0.5;stroke:#000000;stroke-linejoin:miter;stroke-width:0.3;"/>
   </g>
   <g id="patch_106">
    <path clip-path="url(#p8146f013cf)" d="M 316.096855 391.2 
L 330.061443 391.2 
L 330.061443 121.488522 
L 316.096855 121.488522 
z
" style="fill:#4c72b0;fill-opacity:0.5;stroke:#000000;stroke-linejoin:miter;stroke-width:0.3;"/>
   </g>
   <g id="patch_107">
    <path clip-path="url(#p8146f013cf)" d="M 330.061443 391.2 
L 344.026031 391.2 
L 344.026031 112.587153 
L 330.061443 112.587153 
z
" style="fill:#4c72b0;fill-opacity:0.5;stroke:#000000;stroke-linejoin:miter;stroke-width:0.3;"/>
   </g>
   <g id="patch_108">
    <path clip-path="url(#p8146f013cf)" d="M 344.026031 391.2 
L 357.990618 391.2 
L 357.990618 125.04907 
L 344.026031 125.04907 
z
" style="fill:#4c72b0;fill-opacity:0.5;stroke:#000000;stroke-linejoin:miter;stroke-width:0.3;"/>
   </g>
   <g id="patch_109">
    <path clip-path="url(#p8146f013cf)" d="M 357.990618 391.2 
L 371.955206 391.2 
L 371.955206 74.311267 
L 357.990618 74.311267 
z
" style="fill:#4c72b0;fill-opacity:0.5;stroke:#000000;stroke-linejoin:miter;stroke-width:0.3;"/>
   </g>
   <g id="patch_110">
    <path clip-path="url(#p8146f013cf)" d="M 371.955206 391.2 
L 385.919794 391.2 
L 385.919794 121.488522 
L 371.955206 121.488522 
z
" style="fill:#4c72b0;fill-opacity:0.5;stroke:#000000;stroke-linejoin:miter;stroke-width:0.3;"/>
   </g>
   <g id="patch_111">
    <path clip-path="url(#p8146f013cf)" d="M 385.919794 391.2 
L 399.884382 391.2 
L 399.884382 135.730713 
L 385.919794 135.730713 
z
" style="fill:#4c72b0;fill-opacity:0.5;stroke:#000000;stroke-linejoin:miter;stroke-width:0.3;"/>
   </g>
   <g id="patch_112">
    <path clip-path="url(#p8146f013cf)" d="M 399.884382 391.2 
L 413.848969 391.2 
L 413.848969 120.598385 
L 399.884382 120.598385 
z
" style="fill:#4c72b0;fill-opacity:0.5;stroke:#000000;stroke-linejoin:miter;stroke-width:0.3;"/>
   </g>
   <g id="patch_113">
    <path clip-path="url(#p8146f013cf)" d="M 413.848969 391.2 
L 427.813557 391.2 
L 427.813557 173.116462 
L 413.848969 173.116462 
z
" style="fill:#4c72b0;fill-opacity:0.5;stroke:#000000;stroke-linejoin:miter;stroke-width:0.3;"/>
   </g>
   <g id="patch_114">
    <path clip-path="url(#p8146f013cf)" d="M 427.813557 391.2 
L 441.778145 391.2 
L 441.778145 158.874272 
L 427.813557 158.874272 
z
" style="fill:#4c72b0;fill-opacity:0.5;stroke:#000000;stroke-linejoin:miter;stroke-width:0.3;"/>
   </g>
   <g id="patch_115">
    <path clip-path="url(#p8146f013cf)" d="M 441.778145 391.2 
L 455.742733 391.2 
L 455.742733 186.468515 
L 441.778145 186.468515 
z
" style="fill:#4c72b0;fill-opacity:0.5;stroke:#000000;stroke-linejoin:miter;stroke-width:0.3;"/>
   </g>
   <g id="patch_116">
    <path clip-path="url(#p8146f013cf)" d="M 455.742733 391.2 
L 469.70732 391.2 
L 469.70732 226.524675 
L 455.742733 226.524675 
z
" style="fill:#4c72b0;fill-opacity:0.5;stroke:#000000;stroke-linejoin:miter;stroke-width:0.3;"/>
   </g>
   <g id="patch_117">
    <path clip-path="url(#p8146f013cf)" d="M 469.70732 391.2 
L 483.671908 391.2 
L 483.671908 306.636995 
L 469.70732 306.636995 
z
" style="fill:#4c72b0;fill-opacity:0.5;stroke:#000000;stroke-linejoin:miter;stroke-width:0.3;"/>
   </g>
   <g id="patch_118">
    <path clip-path="url(#p8146f013cf)" d="M 483.671908 391.2 
L 497.636496 391.2 
L 497.636496 233.64577 
L 483.671908 233.64577 
z
" style="fill:#4c72b0;fill-opacity:0.5;stroke:#000000;stroke-linejoin:miter;stroke-width:0.3;"/>
   </g>
   <g id="patch_119">
    <path clip-path="url(#p8146f013cf)" d="M 497.636496 391.2 
L 511.601084 391.2 
L 511.601084 279.042752 
L 497.636496 279.042752 
z
" style="fill:#4c72b0;fill-opacity:0.5;stroke:#000000;stroke-linejoin:miter;stroke-width:0.3;"/>
   </g>
   <g id="patch_120">
    <path clip-path="url(#p8146f013cf)" d="M 511.601084 391.2 
L 525.565671 391.2 
L 525.565671 277.262478 
L 511.601084 277.262478 
z
" style="fill:#4c72b0;fill-opacity:0.5;stroke:#000000;stroke-linejoin:miter;stroke-width:0.3;"/>
   </g>
   <g id="patch_121">
    <path clip-path="url(#p8146f013cf)" d="M 525.565671 391.2 
L 539.530259 391.2 
L 539.530259 284.383573 
L 525.565671 284.383573 
z
" style="fill:#4c72b0;fill-opacity:0.5;stroke:#000000;stroke-linejoin:miter;stroke-width:0.3;"/>
   </g>
   <g id="patch_122">
    <path clip-path="url(#p8146f013cf)" d="M 539.530259 391.2 
L 553.494847 391.2 
L 553.494847 295.955353 
L 539.530259 295.955353 
z
" style="fill:#4c72b0;fill-opacity:0.5;stroke:#000000;stroke-linejoin:miter;stroke-width:0.3;"/>
   </g>
   <g id="patch_123">
    <path clip-path="url(#p8146f013cf)" d="M 553.494847 391.2 
L 567.459434 391.2 
L 567.459434 317.318638 
L 553.494847 317.318638 
z
" style="fill:#4c72b0;fill-opacity:0.5;stroke:#000000;stroke-linejoin:miter;stroke-width:0.3;"/>
   </g>
   <g id="patch_124">
    <path clip-path="url(#p8146f013cf)" d="M 567.459434 391.2 
L 581.424022 391.2 
L 581.424022 331.560828 
L 567.459434 331.560828 
z
" style="fill:#4c72b0;fill-opacity:0.5;stroke:#000000;stroke-linejoin:miter;stroke-width:0.3;"/>
   </g>
   <g id="patch_125">
    <path clip-path="url(#p8146f013cf)" d="M 581.424022 391.2 
L 595.38861 391.2 
L 595.38861 326.220007 
L 581.424022 326.220007 
z
" style="fill:#4c72b0;fill-opacity:0.5;stroke:#000000;stroke-linejoin:miter;stroke-width:0.3;"/>
   </g>
   <g id="patch_126">
    <path clip-path="url(#p8146f013cf)" d="M 595.38861 391.2 
L 609.353198 391.2 
L 609.353198 339.57206 
L 595.38861 339.57206 
z
" style="fill:#4c72b0;fill-opacity:0.5;stroke:#000000;stroke-linejoin:miter;stroke-width:0.3;"/>
   </g>
   <g id="patch_127">
    <path clip-path="url(#p8146f013cf)" d="M 609.353198 391.2 
L 623.317785 391.2 
L 623.317785 351.14384 
L 609.353198 351.14384 
z
" style="fill:#4c72b0;fill-opacity:0.5;stroke:#000000;stroke-linejoin:miter;stroke-width:0.3;"/>
   </g>
   <g id="patch_128">
    <path clip-path="url(#p8146f013cf)" d="M 623.317785 391.2 
L 637.282373 391.2 
L 637.282373 360.935346 
L 623.317785 360.935346 
z
" style="fill:#4c72b0;fill-opacity:0.5;stroke:#000000;stroke-linejoin:miter;stroke-width:0.3;"/>
   </g>
   <g id="patch_129">
    <path clip-path="url(#p8146f013cf)" d="M 637.282373 391.2 
L 651.246961 391.2 
L 651.246961 380.518357 
L 637.282373 380.518357 
z
" style="fill:#4c72b0;fill-opacity:0.5;stroke:#000000;stroke-linejoin:miter;stroke-width:0.3;"/>
   </g>
   <g id="patch_130">
    <path clip-path="url(#p8146f013cf)" d="M 651.246961 391.2 
L 665.211549 391.2 
L 665.211549 385.859179 
L 651.246961 385.859179 
z
" style="fill:#4c72b0;fill-opacity:0.5;stroke:#000000;stroke-linejoin:miter;stroke-width:0.3;"/>
   </g>
   <g id="patch_131">
    <path clip-path="url(#p8146f013cf)" d="M 665.211549 391.2 
L 679.176136 391.2 
L 679.176136 378.738084 
L 665.211549 378.738084 
z
" style="fill:#4c72b0;fill-opacity:0.5;stroke:#000000;stroke-linejoin:miter;stroke-width:0.3;"/>
   </g>
   <g id="line2d_29">
    <path clip-path="url(#p8146f013cf)" d="M 78.698864 389.949117 
L 123.96097 388.904362 
L 184.310444 387.592422 
L 220.520129 386.519979 
L 256.729814 385.228882 
L 283.887077 384.014353 
L 314.061815 382.647743 
L 329.149183 382.210212 
L 341.219078 382.069913 
L 353.288973 382.135417 
L 368.376342 382.479904 
L 386.481184 383.155147 
L 431.74329 384.95847 
L 519.250029 388.020791 
L 549.424766 389.063143 
L 576.582029 389.767934 
L 606.756767 390.323225 
L 642.966452 390.764702 
L 679.176136 390.998321 
L 679.176136 390.998321 
" style="fill:none;stroke:#c44e52;stroke-linecap:round;stroke-width:1.75;"/>
   </g>
   <g id="line2d_30">
    <path clip-path="url(#p8146f013cf)" d="M 78.698864 305.958974 
L 84.733811 287.485394 
L 87.751285 278.820219 
L 90.768759 270.731849 
L 93.786232 263.32329 
L 96.803706 256.65824 
L 99.82118 250.762065 
L 102.838653 245.626268 
L 105.856127 241.215544 
L 108.873601 237.476319 
L 111.891075 234.345509 
L 114.908548 231.758401 
L 117.926022 229.654761 
L 120.943496 227.982658 
L 123.96097 226.699866 
L 126.978443 225.773068 
L 129.995917 225.17538 
L 133.013391 224.882874 
L 136.030865 224.870845 
L 139.048338 225.110507 
L 142.065812 225.56665 
L 145.083286 226.196573 
L 151.118233 227.772516 
L 157.153181 229.386207 
L 160.170654 230.062138 
L 163.188128 230.580659 
L 166.205602 230.897582 
L 169.223076 230.976928 
L 172.240549 230.79124 
L 175.258023 230.321263 
L 178.275497 229.555226 
L 181.292971 228.488017 
L 184.310444 227.120457 
L 187.327918 225.458812 
L 190.345392 223.514553 
L 193.362865 221.304254 
L 196.380339 218.849441 
L 199.397813 216.17619 
L 202.415287 213.314333 
L 208.450234 207.155102 
L 217.502655 197.306114 
L 229.57255 184.08166 
L 235.607498 177.746918 
L 241.642445 171.763224 
L 247.677393 166.234124 
L 253.71234 161.177117 
L 268.799709 149.295532 
L 271.817183 146.676503 
L 274.834656 143.853903 
L 277.85213 140.785174 
L 280.869604 137.438869 
L 283.887077 133.796736 
L 286.904551 129.854838 
L 289.922025 125.623798 
L 292.939499 121.12834 
L 298.974446 111.507233 
L 311.044341 91.4429 
L 314.061815 86.681683 
L 317.079288 82.174425 
L 320.096762 77.989903 
L 323.114236 74.187491 
L 326.13171 70.814281 
L 329.149183 67.902955 
L 332.166657 65.470724 
L 335.184131 63.519547 
L 338.201605 62.037687 
L 341.219078 61.00249 
L 344.236552 60.384069 
L 347.254026 60.149425 
L 350.2715 60.266434 
L 353.288973 60.707141 
L 356.306447 61.449888 
L 359.323921 62.479982 
L 362.341394 63.788848 
L 365.358868 65.371887 
L 368.376342 67.225464 
L 371.393816 69.343602 
L 374.411289 71.715013 
L 377.428763 74.321016 
L 380.446237 77.13474 
L 386.481184 83.242129 
L 395.533606 92.989302 
L 404.586027 102.678661 
L 416.655922 115.484854 
L 422.690869 122.374069 
L 425.708343 126.074133 
L 428.725817 129.984198 
L 431.74329 134.122577 
L 434.760764 138.497043 
L 437.778238 143.104998 
L 443.813185 152.96696 
L 449.848133 163.540397 
L 455.88308 174.610506 
L 467.952975 197.416865 
L 477.005396 214.396519 
L 483.040344 225.363839 
L 489.075291 235.914066 
L 495.110239 245.983497 
L 501.145186 255.550913 
L 507.180134 264.618224 
L 513.215081 273.193418 
L 519.250029 281.290744 
L 525.284976 288.946527 
L 531.319923 296.232528 
L 540.372345 306.683029 
L 549.424766 316.777509 
L 555.459713 323.298318 
L 561.494661 329.54152 
L 567.529608 335.376024 
L 573.564556 340.69354 
L 579.599503 345.447744 
L 585.634451 349.66768 
L 591.669398 353.445063 
L 597.704346 356.90511 
L 606.756767 361.767732 
L 621.844135 369.585072 
L 630.896557 374.090349 
L 636.931504 376.901362 
L 642.966452 379.481535 
L 649.001399 381.783911 
L 655.036347 383.7869 
L 661.071294 385.491926 
L 667.106241 386.915125 
L 673.141189 388.078647 
L 679.176136 389.005725 
L 679.176136 389.005725 
" style="fill:none;stroke:#55a868;stroke-linecap:round;stroke-width:1.75;"/>
   </g>
   <g id="line2d_31">
    <path clip-path="url(#p8146f013cf)" d="M 78.698864 360.971488 
L 87.751285 350.066375 
L 90.768759 346.630263 
L 93.786232 343.394235 
L 96.803706 340.40419 
L 99.82118 337.693213 
L 102.838653 335.280694 
L 105.856127 333.172563 
L 108.873601 331.362521 
L 111.891075 329.834081 
L 114.908548 328.563123 
L 117.926022 327.520652 
L 120.943496 326.675459 
L 123.96097 325.996403 
L 129.995917 325.02212 
L 136.030865 324.398562 
L 145.083286 323.78719 
L 154.135707 323.152548 
L 160.170654 322.461148 
L 163.188128 321.972744 
L 166.205602 321.363357 
L 169.223076 320.616717 
L 172.240549 319.720229 
L 175.258023 318.665677 
L 178.275497 317.449604 
L 181.292971 316.073377 
L 184.310444 314.542963 
L 187.327918 312.868505 
L 193.362865 309.145662 
L 199.397813 305.048542 
L 217.502655 292.284068 
L 223.537603 288.397553 
L 229.57255 284.807913 
L 244.659919 276.269867 
L 247.677393 274.369363 
L 250.694866 272.300027 
L 253.71234 270.011726 
L 256.729814 267.45421 
L 259.747288 264.578775 
L 262.764761 261.340137 
L 265.782235 257.698544 
L 268.799709 253.622111 
L 271.817183 249.08928 
L 274.834656 244.091248 
L 277.85213 238.63412 
L 280.869604 232.74052 
L 283.887077 226.450389 
L 289.922025 212.924262 
L 305.009394 177.673456 
L 308.026867 171.143105 
L 311.044341 164.979847 
L 314.061815 159.239176 
L 317.079288 153.958366 
L 320.096762 149.156109 
L 323.114236 144.833513 
L 326.13171 140.976363 
L 329.149183 137.558473 
L 332.166657 134.54582 
L 335.184131 131.901082 
L 338.201605 129.588143 
L 341.219078 127.576065 
L 344.236552 125.842113 
L 347.254026 124.373434 
L 350.2715 123.167221 
L 353.288973 122.229335 
L 356.306447 121.571615 
L 359.323921 121.2083 
L 362.341394 121.152135 
L 365.358868 121.410796 
L 368.376342 121.984201 
L 371.393816 122.863152 
L 374.411289 124.029491 
L 377.428763 125.457694 
L 380.446237 127.117583 
L 383.463711 128.977627 
L 386.481184 131.008243 
L 392.516132 135.487874 
L 398.551079 140.435194 
L 404.586027 145.819716 
L 410.620974 151.647719 
L 416.655922 157.904168 
L 422.690869 164.532315 
L 428.725817 171.456266 
L 437.778238 182.280315 
L 446.830659 193.592689 
L 455.88308 205.386842 
L 464.935501 217.565898 
L 489.075291 250.370096 
L 495.110239 258.059972 
L 501.145186 265.214711 
L 504.16266 268.547494 
L 507.180134 271.705573 
L 510.197607 274.689929 
L 516.232555 280.182286 
L 522.267502 285.183271 
L 546.407292 304.326214 
L 558.477187 314.119929 
L 564.512135 318.683016 
L 570.547082 322.883569 
L 576.582029 326.73636 
L 585.634451 332.124136 
L 594.686872 337.541274 
L 600.721819 341.393978 
L 606.756767 345.504053 
L 612.791714 349.849021 
L 633.91403 365.50653 
L 639.948978 369.557405 
L 645.983925 373.183556 
L 649.001399 374.812644 
L 652.018873 376.313614 
L 658.05382 378.940241 
L 664.088768 381.118505 
L 670.123715 382.943418 
L 676.158663 384.514941 
L 679.176136 385.230086 
L 679.176136 385.230086 
" style="fill:none;stroke:#4c72b0;stroke-linecap:round;stroke-width:1.75;"/>
   </g>
   <g id="patch_132">
    <path d="M 48.675 391.2 
L 48.675 10.8 
" style="fill:none;"/>
   </g>
   <g id="patch_133">
    <path d="M 709.2 391.2 
L 709.2 10.8 
" style="fill:none;"/>
   </g>
   <g id="patch_134">
    <path d="M 48.675 391.2 
L 709.2 391.2 
" style="fill:none;"/>
   </g>
   <g id="patch_135">
    <path d="M 48.675 10.8 
L 709.2 10.8 
" style="fill:none;"/>
   </g>
   <g id="legend_1">
    <g id="text_17">
     <!-- gender -->
     <g style="fill:#262626;" transform="translate(666.467969 26.957813)scale(0.1 -0.1)">
      <defs>
       <path d="M 40.234375 0 
L 40.234375 6.546875 
Q 35.296875 -1.171875 25.734375 -1.171875 
Q 19.53125 -1.171875 14.328125 2.25 
Q 9.125 5.671875 6.265625 11.796875 
Q 3.421875 17.921875 3.421875 25.875 
Q 3.421875 33.640625 6 39.96875 
Q 8.59375 46.296875 13.765625 49.65625 
Q 18.953125 53.03125 25.34375 53.03125 
Q 30.03125 53.03125 33.6875 51.046875 
Q 37.359375 49.078125 39.65625 45.90625 
L 39.65625 71.578125 
L 48.390625 71.578125 
L 48.390625 0 
z
M 12.453125 25.875 
Q 12.453125 15.921875 16.640625 10.984375 
Q 20.84375 6.0625 26.5625 6.0625 
Q 32.328125 6.0625 36.34375 10.765625 
Q 40.375 15.484375 40.375 25.140625 
Q 40.375 35.796875 36.265625 40.765625 
Q 32.171875 45.75 26.171875 45.75 
Q 20.3125 45.75 16.375 40.96875 
Q 12.453125 36.1875 12.453125 25.875 
z
" id="ArialMT-100"/>
       <path d="M 6.5 0 
L 6.5 51.859375 
L 14.40625 51.859375 
L 14.40625 44 
Q 17.4375 49.515625 20 51.265625 
Q 22.5625 53.03125 25.640625 53.03125 
Q 30.078125 53.03125 34.671875 50.203125 
L 31.640625 42.046875 
Q 28.421875 43.953125 25.203125 43.953125 
Q 22.3125 43.953125 20.015625 42.21875 
Q 17.71875 40.484375 16.75 37.40625 
Q 15.28125 32.71875 15.28125 27.15625 
L 15.28125 0 
z
" id="ArialMT-114"/>
      </defs>
      <use xlink:href="#ArialMT-103"/>
      <use x="55.615234" xlink:href="#ArialMT-101"/>
      <use x="111.230469" xlink:href="#ArialMT-110"/>
      <use x="166.845703" xlink:href="#ArialMT-100"/>
      <use x="222.460938" xlink:href="#ArialMT-101"/>
      <use x="278.076172" xlink:href="#ArialMT-114"/>
     </g>
    </g>
    <g id="patch_136">
     <path d="M 663.870313 41.220313 
L 683.870313 41.220313 
L 683.870313 34.220313 
L 663.870313 34.220313 
z
" style="fill:#4c72b0;fill-opacity:0.5;stroke:#000000;stroke-linejoin:miter;stroke-width:0.3;"/>
    </g>
    <g id="text_18">
     <!-- F -->
     <g style="fill:#262626;" transform="translate(691.870313 41.220313)scale(0.1 -0.1)">
      <defs>
       <path d="M 8.203125 0 
L 8.203125 71.578125 
L 56.5 71.578125 
L 56.5 63.140625 
L 17.671875 63.140625 
L 17.671875 40.96875 
L 51.265625 40.96875 
L 51.265625 32.515625 
L 17.671875 32.515625 
L 17.671875 0 
z
" id="ArialMT-70"/>
      </defs>
      <use xlink:href="#ArialMT-70"/>
     </g>
    </g>
    <g id="patch_137">
     <path d="M 663.870313 55.365625 
L 683.870313 55.365625 
L 683.870313 48.365625 
L 663.870313 48.365625 
z
" style="fill:#55a868;fill-opacity:0.5;stroke:#000000;stroke-linejoin:miter;stroke-width:0.3;"/>
    </g>
    <g id="text_19">
     <!-- M -->
     <g style="fill:#262626;" transform="translate(691.870313 55.365625)scale(0.1 -0.1)">
      <defs>
       <path d="M 7.421875 0 
L 7.421875 71.578125 
L 21.6875 71.578125 
L 38.625 20.90625 
Q 40.96875 13.8125 42.046875 10.296875 
Q 43.265625 14.203125 45.84375 21.78125 
L 62.984375 71.578125 
L 75.734375 71.578125 
L 75.734375 0 
L 66.609375 0 
L 66.609375 59.90625 
L 45.796875 0 
L 37.25 0 
L 16.546875 60.9375 
L 16.546875 0 
z
" id="ArialMT-77"/>
      </defs>
      <use xlink:href="#ArialMT-77"/>
     </g>
    </g>
    <g id="patch_138">
     <path d="M 663.870313 69.510938 
L 683.870313 69.510938 
L 683.870313 62.510938 
L 663.870313 62.510938 
z
" style="fill:#c44e52;fill-opacity:0.5;stroke:#000000;stroke-linejoin:miter;stroke-width:0.3;"/>
    </g>
    <g id="text_20">
     <!-- O -->
     <g style="fill:#262626;" transform="translate(691.870313 69.510938)scale(0.1 -0.1)">
      <defs>
       <path d="M 4.828125 34.859375 
Q 4.828125 52.6875 14.390625 62.765625 
Q 23.96875 72.859375 39.109375 72.859375 
Q 49.03125 72.859375 56.984375 68.109375 
Q 64.9375 63.375 69.109375 54.90625 
Q 73.296875 46.4375 73.296875 35.6875 
Q 73.296875 24.8125 68.890625 16.21875 
Q 64.5 7.625 56.4375 3.203125 
Q 48.390625 -1.21875 39.0625 -1.21875 
Q 28.953125 -1.21875 20.984375 3.65625 
Q 13.03125 8.546875 8.921875 16.984375 
Q 4.828125 25.4375 4.828125 34.859375 
z
M 14.59375 34.71875 
Q 14.59375 21.78125 21.546875 14.328125 
Q 28.515625 6.890625 39.015625 6.890625 
Q 49.703125 6.890625 56.609375 14.40625 
Q 63.53125 21.921875 63.53125 35.75 
Q 63.53125 44.484375 60.578125 51 
Q 57.625 57.515625 51.921875 61.109375 
Q 46.234375 64.703125 39.15625 64.703125 
Q 29.109375 64.703125 21.84375 57.78125 
Q 14.59375 50.875 14.59375 34.71875 
z
" id="ArialMT-79"/>
      </defs>
      <use xlink:href="#ArialMT-79"/>
     </g>
    </g>
   </g>
  </g>
 </g>
 <defs>
  <clipPath id="p8146f013cf">
   <rect height="380.4" width="660.525" x="48.675" y="10.8"/>
  </clipPath>
 </defs>
</svg>
