<?xml version="1.0" encoding="utf-8" standalone="no"?>
<!DOCTYPE svg PUBLIC "-//W3C//DTD SVG 1.1//EN"
  "http://www.w3.org/Graphics/SVG/1.1/DTD/svg11.dtd">
<!-- Created with matplotlib (https://matplotlib.org/) -->
<svg height="432pt" version="1.1" viewBox="0 0 720 432" width="720pt" xmlns="http://www.w3.org/2000/svg" xmlns:xlink="http://www.w3.org/1999/xlink">
 <metadata>
  <rdf:RDF xmlns:cc="http://creativecommons.org/ns#" xmlns:dc="http://purl.org/dc/elements/1.1/" xmlns:rdf="http://www.w3.org/1999/02/22-rdf-syntax-ns#">
   <cc:Work>
    <dc:type rdf:resource="http://purl.org/dc/dcmitype/StillImage"/>
    <dc:date>2020-10-23T15:49:33.718892</dc:date>
    <dc:format>image/svg+xml</dc:format>
    <dc:creator>
     <cc:Agent>
      <dc:title>Matplotlib v3.3.2, https://matplotlib.org/</dc:title>
     </cc:Agent>
    </dc:creator>
   </cc:Work>
  </rdf:RDF>
 </metadata>
 <defs>
  <style type="text/css">*{stroke-linecap:butt;stroke-linejoin:round;}</style>
 </defs>
 <g id="figure_1">
  <g id="patch_1">
   <path d="M 0 432 
L 720 432 
L 720 0 
L 0 0 
z
" style="fill:#ffffff;"/>
  </g>
  <g id="axes_1">
   <g id="patch_2">
    <path d="M 48.675 391.2 
L 709.2 391.2 
L 709.2 10.8 
L 48.675 10.8 
z
" style="fill:#eaeaf2;"/>
   </g>
   <g id="matplotlib.axis_1">
    <g id="xtick_1">
     <g id="line2d_1">
      <path clip-path="url(#p6272f98ce2)" d="M 145.418561 391.2 
L 145.418561 10.8 
" style="fill:none;stroke:#ffffff;stroke-linecap:round;"/>
     </g>
     <g id="line2d_2"/>
     <g id="text_1">
      <!-- 40000 -->
      <g style="fill:#262626;" transform="translate(131.516217 405.357813)scale(0.1 -0.1)">
       <defs>
        <path d="M 32.328125 0 
L 32.328125 17.140625 
L 1.265625 17.140625 
L 1.265625 25.203125 
L 33.9375 71.578125 
L 41.109375 71.578125 
L 41.109375 25.203125 
L 50.78125 25.203125 
L 50.78125 17.140625 
L 41.109375 17.140625 
L 41.109375 0 
z
M 32.328125 25.203125 
L 32.328125 57.46875 
L 9.90625 25.203125 
z
" id="ArialMT-52"/>
        <path d="M 4.15625 35.296875 
Q 4.15625 48 6.765625 55.734375 
Q 9.375 63.484375 14.515625 67.671875 
Q 19.671875 71.875 27.484375 71.875 
Q 33.25 71.875 37.59375 69.546875 
Q 41.9375 67.234375 44.765625 62.859375 
Q 47.609375 58.5 49.21875 52.21875 
Q 50.828125 45.953125 50.828125 35.296875 
Q 50.828125 22.703125 48.234375 14.96875 
Q 45.65625 7.234375 40.5 3 
Q 35.359375 -1.21875 27.484375 -1.21875 
Q 17.140625 -1.21875 11.234375 6.203125 
Q 4.15625 15.140625 4.15625 35.296875 
z
M 13.1875 35.296875 
Q 13.1875 17.671875 17.3125 11.828125 
Q 21.4375 6 27.484375 6 
Q 33.546875 6 37.671875 11.859375 
Q 41.796875 17.71875 41.796875 35.296875 
Q 41.796875 52.984375 37.671875 58.78125 
Q 33.546875 64.59375 27.390625 64.59375 
Q 21.34375 64.59375 17.71875 59.46875 
Q 13.1875 52.9375 13.1875 35.296875 
z
" id="ArialMT-48"/>
       </defs>
       <use xlink:href="#ArialMT-52"/>
       <use x="55.615234" xlink:href="#ArialMT-48"/>
       <use x="111.230469" xlink:href="#ArialMT-48"/>
       <use x="166.845703" xlink:href="#ArialMT-48"/>
       <use x="222.460938" xlink:href="#ArialMT-48"/>
      </g>
     </g>
    </g>
    <g id="xtick_2">
     <g id="line2d_3">
      <path clip-path="url(#p6272f98ce2)" d="M 278.857955 391.2 
L 278.857955 10.8 
" style="fill:none;stroke:#ffffff;stroke-linecap:round;"/>
     </g>
     <g id="line2d_4"/>
     <g id="text_2">
      <!-- 60000 -->
      <g style="fill:#262626;" transform="translate(264.955611 405.357813)scale(0.1 -0.1)">
       <defs>
        <path d="M 49.75 54.046875 
L 41.015625 53.375 
Q 39.84375 58.546875 37.703125 60.890625 
Q 34.125 64.65625 28.90625 64.65625 
Q 24.703125 64.65625 21.53125 62.3125 
Q 17.390625 59.28125 14.984375 53.46875 
Q 12.59375 47.65625 12.5 36.921875 
Q 15.671875 41.75 20.265625 44.09375 
Q 24.859375 46.4375 29.890625 46.4375 
Q 38.671875 46.4375 44.84375 39.96875 
Q 51.03125 33.5 51.03125 23.25 
Q 51.03125 16.5 48.125 10.71875 
Q 45.21875 4.9375 40.140625 1.859375 
Q 35.0625 -1.21875 28.609375 -1.21875 
Q 17.625 -1.21875 10.6875 6.859375 
Q 3.765625 14.9375 3.765625 33.5 
Q 3.765625 54.25 11.421875 63.671875 
Q 18.109375 71.875 29.4375 71.875 
Q 37.890625 71.875 43.28125 67.140625 
Q 48.6875 62.40625 49.75 54.046875 
z
M 13.875 23.1875 
Q 13.875 18.65625 15.796875 14.5 
Q 17.71875 10.359375 21.1875 8.171875 
Q 24.65625 6 28.46875 6 
Q 34.03125 6 38.03125 10.484375 
Q 42.046875 14.984375 42.046875 22.703125 
Q 42.046875 30.125 38.078125 34.390625 
Q 34.125 38.671875 28.125 38.671875 
Q 22.171875 38.671875 18.015625 34.390625 
Q 13.875 30.125 13.875 23.1875 
z
" id="ArialMT-54"/>
       </defs>
       <use xlink:href="#ArialMT-54"/>
       <use x="55.615234" xlink:href="#ArialMT-48"/>
       <use x="111.230469" xlink:href="#ArialMT-48"/>
       <use x="166.845703" xlink:href="#ArialMT-48"/>
       <use x="222.460938" xlink:href="#ArialMT-48"/>
      </g>
     </g>
    </g>
    <g id="xtick_3">
     <g id="line2d_5">
      <path clip-path="url(#p6272f98ce2)" d="M 412.297348 391.2 
L 412.297348 10.8 
" style="fill:none;stroke:#ffffff;stroke-linecap:round;"/>
     </g>
     <g id="line2d_6"/>
     <g id="text_3">
      <!-- 80000 -->
      <g style="fill:#262626;" transform="translate(398.395005 405.357813)scale(0.1 -0.1)">
       <defs>
        <path d="M 17.671875 38.8125 
Q 12.203125 40.828125 9.5625 44.53125 
Q 6.9375 48.25 6.9375 53.421875 
Q 6.9375 61.234375 12.546875 66.546875 
Q 18.171875 71.875 27.484375 71.875 
Q 36.859375 71.875 42.578125 66.421875 
Q 48.296875 60.984375 48.296875 53.171875 
Q 48.296875 48.1875 45.671875 44.5 
Q 43.0625 40.828125 37.75 38.8125 
Q 44.34375 36.671875 47.78125 31.875 
Q 51.21875 27.09375 51.21875 20.453125 
Q 51.21875 11.28125 44.71875 5.03125 
Q 38.234375 -1.21875 27.640625 -1.21875 
Q 17.046875 -1.21875 10.546875 5.046875 
Q 4.046875 11.328125 4.046875 20.703125 
Q 4.046875 27.6875 7.59375 32.390625 
Q 11.140625 37.109375 17.671875 38.8125 
z
M 15.921875 53.71875 
Q 15.921875 48.640625 19.1875 45.40625 
Q 22.46875 42.1875 27.6875 42.1875 
Q 32.765625 42.1875 36.015625 45.375 
Q 39.265625 48.578125 39.265625 53.21875 
Q 39.265625 58.0625 35.90625 61.359375 
Q 32.5625 64.65625 27.59375 64.65625 
Q 22.5625 64.65625 19.234375 61.421875 
Q 15.921875 58.203125 15.921875 53.71875 
z
M 13.09375 20.65625 
Q 13.09375 16.890625 14.875 13.375 
Q 16.65625 9.859375 20.171875 7.921875 
Q 23.6875 6 27.734375 6 
Q 34.03125 6 38.125 10.046875 
Q 42.234375 14.109375 42.234375 20.359375 
Q 42.234375 26.703125 38.015625 30.859375 
Q 33.796875 35.015625 27.4375 35.015625 
Q 21.234375 35.015625 17.15625 30.90625 
Q 13.09375 26.8125 13.09375 20.65625 
z
" id="ArialMT-56"/>
       </defs>
       <use xlink:href="#ArialMT-56"/>
       <use x="55.615234" xlink:href="#ArialMT-48"/>
       <use x="111.230469" xlink:href="#ArialMT-48"/>
       <use x="166.845703" xlink:href="#ArialMT-48"/>
       <use x="222.460938" xlink:href="#ArialMT-48"/>
      </g>
     </g>
    </g>
    <g id="xtick_4">
     <g id="line2d_7">
      <path clip-path="url(#p6272f98ce2)" d="M 545.736742 391.2 
L 545.736742 10.8 
" style="fill:none;stroke:#ffffff;stroke-linecap:round;"/>
     </g>
     <g id="line2d_8"/>
     <g id="text_4">
      <!-- 100000 -->
      <g style="fill:#262626;" transform="translate(529.05393 405.357813)scale(0.1 -0.1)">
       <defs>
        <path d="M 37.25 0 
L 28.46875 0 
L 28.46875 56 
Q 25.296875 52.984375 20.140625 49.953125 
Q 14.984375 46.921875 10.890625 45.40625 
L 10.890625 53.90625 
Q 18.265625 57.375 23.78125 62.296875 
Q 29.296875 67.234375 31.59375 71.875 
L 37.25 71.875 
z
" id="ArialMT-49"/>
       </defs>
       <use xlink:href="#ArialMT-49"/>
       <use x="55.615234" xlink:href="#ArialMT-48"/>
       <use x="111.230469" xlink:href="#ArialMT-48"/>
       <use x="166.845703" xlink:href="#ArialMT-48"/>
       <use x="222.460938" xlink:href="#ArialMT-48"/>
       <use x="278.076172" xlink:href="#ArialMT-48"/>
      </g>
     </g>
    </g>
    <g id="xtick_5">
     <g id="line2d_9">
      <path clip-path="url(#p6272f98ce2)" d="M 679.176136 391.2 
L 679.176136 10.8 
" style="fill:none;stroke:#ffffff;stroke-linecap:round;"/>
     </g>
     <g id="line2d_10"/>
     <g id="text_5">
      <!-- 120000 -->
      <g style="fill:#262626;" transform="translate(662.493324 405.357813)scale(0.1 -0.1)">
       <defs>
        <path d="M 50.34375 8.453125 
L 50.34375 0 
L 3.03125 0 
Q 2.9375 3.171875 4.046875 6.109375 
Q 5.859375 10.9375 9.828125 15.625 
Q 13.8125 20.3125 21.34375 26.46875 
Q 33.015625 36.03125 37.109375 41.625 
Q 41.21875 47.21875 41.21875 52.203125 
Q 41.21875 57.421875 37.46875 61 
Q 33.734375 64.59375 27.734375 64.59375 
Q 21.390625 64.59375 17.578125 60.78125 
Q 13.765625 56.984375 13.71875 50.25 
L 4.6875 51.171875 
Q 5.609375 61.28125 11.65625 66.578125 
Q 17.71875 71.875 27.9375 71.875 
Q 38.234375 71.875 44.234375 66.15625 
Q 50.25 60.453125 50.25 52 
Q 50.25 47.703125 48.484375 43.546875 
Q 46.734375 39.40625 42.65625 34.8125 
Q 38.578125 30.21875 29.109375 22.21875 
Q 21.1875 15.578125 18.9375 13.203125 
Q 16.703125 10.84375 15.234375 8.453125 
z
" id="ArialMT-50"/>
       </defs>
       <use xlink:href="#ArialMT-49"/>
       <use x="55.615234" xlink:href="#ArialMT-50"/>
       <use x="111.230469" xlink:href="#ArialMT-48"/>
       <use x="166.845703" xlink:href="#ArialMT-48"/>
       <use x="222.460938" xlink:href="#ArialMT-48"/>
       <use x="278.076172" xlink:href="#ArialMT-48"/>
      </g>
     </g>
    </g>
    <g id="text_6">
     <!-- income -->
     <g style="fill:#262626;" transform="translate(361.208594 419.218906)scale(0.11 -0.11)">
      <defs>
       <path d="M 6.640625 61.46875 
L 6.640625 71.578125 
L 15.4375 71.578125 
L 15.4375 61.46875 
z
M 6.640625 0 
L 6.640625 51.859375 
L 15.4375 51.859375 
L 15.4375 0 
z
" id="ArialMT-105"/>
       <path d="M 6.59375 0 
L 6.59375 51.859375 
L 14.5 51.859375 
L 14.5 44.484375 
Q 20.21875 53.03125 31 53.03125 
Q 35.6875 53.03125 39.625 51.34375 
Q 43.5625 49.65625 45.515625 46.921875 
Q 47.46875 44.1875 48.25 40.4375 
Q 48.734375 37.984375 48.734375 31.890625 
L 48.734375 0 
L 39.9375 0 
L 39.9375 31.546875 
Q 39.9375 36.921875 38.90625 39.578125 
Q 37.890625 42.234375 35.28125 43.8125 
Q 32.671875 45.40625 29.15625 45.40625 
Q 23.53125 45.40625 19.453125 41.84375 
Q 15.375 38.28125 15.375 28.328125 
L 15.375 0 
z
" id="ArialMT-110"/>
       <path d="M 40.4375 19 
L 49.078125 17.875 
Q 47.65625 8.9375 41.8125 3.875 
Q 35.984375 -1.171875 27.484375 -1.171875 
Q 16.84375 -1.171875 10.375 5.78125 
Q 3.90625 12.75 3.90625 25.734375 
Q 3.90625 34.125 6.6875 40.421875 
Q 9.46875 46.734375 15.15625 49.875 
Q 20.84375 53.03125 27.546875 53.03125 
Q 35.984375 53.03125 41.359375 48.75 
Q 46.734375 44.484375 48.25 36.625 
L 39.703125 35.296875 
Q 38.484375 40.53125 35.375 43.15625 
Q 32.28125 45.796875 27.875 45.796875 
Q 21.234375 45.796875 17.078125 41.03125 
Q 12.9375 36.28125 12.9375 25.984375 
Q 12.9375 15.53125 16.9375 10.796875 
Q 20.953125 6.0625 27.390625 6.0625 
Q 32.5625 6.0625 36.03125 9.234375 
Q 39.5 12.40625 40.4375 19 
z
" id="ArialMT-99"/>
       <path d="M 3.328125 25.921875 
Q 3.328125 40.328125 11.328125 47.265625 
Q 18.015625 53.03125 27.640625 53.03125 
Q 38.328125 53.03125 45.109375 46.015625 
Q 51.90625 39.015625 51.90625 26.65625 
Q 51.90625 16.65625 48.90625 10.90625 
Q 45.90625 5.171875 40.15625 2 
Q 34.421875 -1.171875 27.640625 -1.171875 
Q 16.75 -1.171875 10.03125 5.8125 
Q 3.328125 12.796875 3.328125 25.921875 
z
M 12.359375 25.921875 
Q 12.359375 15.96875 16.703125 11.015625 
Q 21.046875 6.0625 27.640625 6.0625 
Q 34.1875 6.0625 38.53125 11.03125 
Q 42.875 16.015625 42.875 26.21875 
Q 42.875 35.84375 38.5 40.796875 
Q 34.125 45.75 27.640625 45.75 
Q 21.046875 45.75 16.703125 40.8125 
Q 12.359375 35.890625 12.359375 25.921875 
z
" id="ArialMT-111"/>
       <path d="M 6.59375 0 
L 6.59375 51.859375 
L 14.453125 51.859375 
L 14.453125 44.578125 
Q 16.890625 48.390625 20.9375 50.703125 
Q 25 53.03125 30.171875 53.03125 
Q 35.9375 53.03125 39.625 50.640625 
Q 43.3125 48.25 44.828125 43.953125 
Q 50.984375 53.03125 60.84375 53.03125 
Q 68.5625 53.03125 72.703125 48.75 
Q 76.859375 44.484375 76.859375 35.59375 
L 76.859375 0 
L 68.109375 0 
L 68.109375 32.671875 
Q 68.109375 37.9375 67.25 40.25 
Q 66.40625 42.578125 64.15625 43.984375 
Q 61.921875 45.40625 58.890625 45.40625 
Q 53.421875 45.40625 49.796875 41.765625 
Q 46.1875 38.140625 46.1875 30.125 
L 46.1875 0 
L 37.40625 0 
L 37.40625 33.6875 
Q 37.40625 39.546875 35.25 42.46875 
Q 33.109375 45.40625 28.21875 45.40625 
Q 24.515625 45.40625 21.359375 43.453125 
Q 18.21875 41.5 16.796875 37.734375 
Q 15.375 33.984375 15.375 26.90625 
L 15.375 0 
z
" id="ArialMT-109"/>
       <path d="M 42.09375 16.703125 
L 51.171875 15.578125 
Q 49.03125 7.625 43.21875 3.21875 
Q 37.40625 -1.171875 28.375 -1.171875 
Q 17 -1.171875 10.328125 5.828125 
Q 3.65625 12.84375 3.65625 25.484375 
Q 3.65625 38.578125 10.390625 45.796875 
Q 17.140625 53.03125 27.875 53.03125 
Q 38.28125 53.03125 44.875 45.953125 
Q 51.46875 38.875 51.46875 26.03125 
Q 51.46875 25.25 51.421875 23.6875 
L 12.75 23.6875 
Q 13.234375 15.140625 17.578125 10.59375 
Q 21.921875 6.0625 28.421875 6.0625 
Q 33.25 6.0625 36.671875 8.59375 
Q 40.09375 11.140625 42.09375 16.703125 
z
M 13.234375 30.90625 
L 42.1875 30.90625 
Q 41.609375 37.453125 38.875 40.71875 
Q 34.671875 45.796875 27.984375 45.796875 
Q 21.921875 45.796875 17.796875 41.75 
Q 13.671875 37.703125 13.234375 30.90625 
z
" id="ArialMT-101"/>
      </defs>
      <use xlink:href="#ArialMT-105"/>
      <use x="22.216797" xlink:href="#ArialMT-110"/>
      <use x="77.832031" xlink:href="#ArialMT-99"/>
      <use x="127.832031" xlink:href="#ArialMT-111"/>
      <use x="183.447266" xlink:href="#ArialMT-109"/>
      <use x="266.748047" xlink:href="#ArialMT-101"/>
     </g>
    </g>
   </g>
   <g id="matplotlib.axis_2">
    <g id="ytick_1">
     <g id="line2d_11">
      <path clip-path="url(#p6272f98ce2)" d="M 48.675 391.2 
L 709.2 391.2 
" style="fill:none;stroke:#ffffff;stroke-linecap:round;"/>
     </g>
     <g id="line2d_12"/>
     <g id="text_7">
      <!-- 0 -->
      <g style="fill:#262626;" transform="translate(36.114062 394.778906)scale(0.1 -0.1)">
       <use xlink:href="#ArialMT-48"/>
      </g>
     </g>
    </g>
    <g id="ytick_2">
     <g id="line2d_13">
      <path clip-path="url(#p6272f98ce2)" d="M 48.675 321.929309 
L 709.2 321.929309 
" style="fill:none;stroke:#ffffff;stroke-linecap:round;"/>
     </g>
     <g id="line2d_14"/>
     <g id="text_8">
      <!-- 100 -->
      <g style="fill:#262626;" transform="translate(24.992187 325.508215)scale(0.1 -0.1)">
       <use xlink:href="#ArialMT-49"/>
       <use x="55.615234" xlink:href="#ArialMT-48"/>
       <use x="111.230469" xlink:href="#ArialMT-48"/>
      </g>
     </g>
    </g>
    <g id="ytick_3">
     <g id="line2d_15">
      <path clip-path="url(#p6272f98ce2)" d="M 48.675 252.658618 
L 709.2 252.658618 
" style="fill:none;stroke:#ffffff;stroke-linecap:round;"/>
     </g>
     <g id="line2d_16"/>
     <g id="text_9">
      <!-- 200 -->
      <g style="fill:#262626;" transform="translate(24.992187 256.237524)scale(0.1 -0.1)">
       <use xlink:href="#ArialMT-50"/>
       <use x="55.615234" xlink:href="#ArialMT-48"/>
       <use x="111.230469" xlink:href="#ArialMT-48"/>
      </g>
     </g>
    </g>
    <g id="ytick_4">
     <g id="line2d_17">
      <path clip-path="url(#p6272f98ce2)" d="M 48.675 183.387927 
L 709.2 183.387927 
" style="fill:none;stroke:#ffffff;stroke-linecap:round;"/>
     </g>
     <g id="line2d_18"/>
     <g id="text_10">
      <!-- 300 -->
      <g style="fill:#262626;" transform="translate(24.992187 186.966833)scale(0.1 -0.1)">
       <defs>
        <path d="M 4.203125 18.890625 
L 12.984375 20.0625 
Q 14.5 12.59375 18.140625 9.296875 
Q 21.78125 6 27 6 
Q 33.203125 6 37.46875 10.296875 
Q 41.75 14.59375 41.75 20.953125 
Q 41.75 27 37.796875 30.921875 
Q 33.84375 34.859375 27.734375 34.859375 
Q 25.25 34.859375 21.53125 33.890625 
L 22.515625 41.609375 
Q 23.390625 41.5 23.921875 41.5 
Q 29.546875 41.5 34.03125 44.421875 
Q 38.53125 47.359375 38.53125 53.46875 
Q 38.53125 58.296875 35.25 61.46875 
Q 31.984375 64.65625 26.8125 64.65625 
Q 21.6875 64.65625 18.265625 61.421875 
Q 14.84375 58.203125 13.875 51.765625 
L 5.078125 53.328125 
Q 6.6875 62.15625 12.390625 67.015625 
Q 18.109375 71.875 26.609375 71.875 
Q 32.46875 71.875 37.390625 69.359375 
Q 42.328125 66.84375 44.9375 62.5 
Q 47.5625 58.15625 47.5625 53.265625 
Q 47.5625 48.640625 45.0625 44.828125 
Q 42.578125 41.015625 37.703125 38.765625 
Q 44.046875 37.3125 47.5625 32.6875 
Q 51.078125 28.078125 51.078125 21.140625 
Q 51.078125 11.765625 44.234375 5.25 
Q 37.40625 -1.265625 26.953125 -1.265625 
Q 17.53125 -1.265625 11.296875 4.34375 
Q 5.078125 9.96875 4.203125 18.890625 
z
" id="ArialMT-51"/>
       </defs>
       <use xlink:href="#ArialMT-51"/>
       <use x="55.615234" xlink:href="#ArialMT-48"/>
       <use x="111.230469" xlink:href="#ArialMT-48"/>
      </g>
     </g>
    </g>
    <g id="ytick_5">
     <g id="line2d_19">
      <path clip-path="url(#p6272f98ce2)" d="M 48.675 114.117236 
L 709.2 114.117236 
" style="fill:none;stroke:#ffffff;stroke-linecap:round;"/>
     </g>
     <g id="line2d_20"/>
     <g id="text_11">
      <!-- 400 -->
      <g style="fill:#262626;" transform="translate(24.992187 117.696142)scale(0.1 -0.1)">
       <use xlink:href="#ArialMT-52"/>
       <use x="55.615234" xlink:href="#ArialMT-48"/>
       <use x="111.230469" xlink:href="#ArialMT-48"/>
      </g>
     </g>
    </g>
    <g id="ytick_6">
     <g id="line2d_21">
      <path clip-path="url(#p6272f98ce2)" d="M 48.675 44.846545 
L 709.2 44.846545 
" style="fill:none;stroke:#ffffff;stroke-linecap:round;"/>
     </g>
     <g id="line2d_22"/>
     <g id="text_12">
      <!-- 500 -->
      <g style="fill:#262626;" transform="translate(24.992187 48.425451)scale(0.1 -0.1)">
       <defs>
        <path d="M 4.15625 18.75 
L 13.375 19.53125 
Q 14.40625 12.796875 18.140625 9.390625 
Q 21.875 6 27.15625 6 
Q 33.5 6 37.890625 10.78125 
Q 42.28125 15.578125 42.28125 23.484375 
Q 42.28125 31 38.0625 35.34375 
Q 33.84375 39.703125 27 39.703125 
Q 22.75 39.703125 19.328125 37.765625 
Q 15.921875 35.84375 13.96875 32.765625 
L 5.71875 33.84375 
L 12.640625 70.609375 
L 48.25 70.609375 
L 48.25 62.203125 
L 19.671875 62.203125 
L 15.828125 42.96875 
Q 22.265625 47.46875 29.34375 47.46875 
Q 38.71875 47.46875 45.15625 40.96875 
Q 51.609375 34.46875 51.609375 24.265625 
Q 51.609375 14.546875 45.953125 7.46875 
Q 39.0625 -1.21875 27.15625 -1.21875 
Q 17.390625 -1.21875 11.203125 4.25 
Q 5.03125 9.71875 4.15625 18.75 
z
" id="ArialMT-53"/>
       </defs>
       <use xlink:href="#ArialMT-53"/>
       <use x="55.615234" xlink:href="#ArialMT-48"/>
       <use x="111.230469" xlink:href="#ArialMT-48"/>
      </g>
     </g>
    </g>
    <g id="text_13">
     <!-- Count -->
     <g style="fill:#262626;" transform="translate(18.805937 215.675547)rotate(-90)scale(0.11 -0.11)">
      <defs>
       <path d="M 58.796875 25.09375 
L 68.265625 22.703125 
Q 65.28125 11.03125 57.546875 4.90625 
Q 49.8125 -1.21875 38.625 -1.21875 
Q 27.046875 -1.21875 19.796875 3.484375 
Q 12.546875 8.203125 8.765625 17.140625 
Q 4.984375 26.078125 4.984375 36.328125 
Q 4.984375 47.515625 9.25 55.828125 
Q 13.53125 64.15625 21.40625 68.46875 
Q 29.296875 72.796875 38.765625 72.796875 
Q 49.515625 72.796875 56.828125 67.328125 
Q 64.15625 61.859375 67.046875 51.953125 
L 57.71875 49.75 
Q 55.21875 57.5625 50.484375 61.125 
Q 45.75 64.703125 38.578125 64.703125 
Q 30.328125 64.703125 24.78125 60.734375 
Q 19.234375 56.78125 16.984375 50.109375 
Q 14.75 43.453125 14.75 36.375 
Q 14.75 27.25 17.40625 20.4375 
Q 20.0625 13.625 25.671875 10.25 
Q 31.296875 6.890625 37.84375 6.890625 
Q 45.796875 6.890625 51.3125 11.46875 
Q 56.84375 16.0625 58.796875 25.09375 
z
" id="ArialMT-67"/>
       <path d="M 40.578125 0 
L 40.578125 7.625 
Q 34.515625 -1.171875 24.125 -1.171875 
Q 19.53125 -1.171875 15.546875 0.578125 
Q 11.578125 2.34375 9.640625 5 
Q 7.71875 7.671875 6.9375 11.53125 
Q 6.390625 14.109375 6.390625 19.734375 
L 6.390625 51.859375 
L 15.1875 51.859375 
L 15.1875 23.09375 
Q 15.1875 16.21875 15.71875 13.8125 
Q 16.546875 10.359375 19.234375 8.375 
Q 21.921875 6.390625 25.875 6.390625 
Q 29.828125 6.390625 33.296875 8.421875 
Q 36.765625 10.453125 38.203125 13.9375 
Q 39.65625 17.4375 39.65625 24.078125 
L 39.65625 51.859375 
L 48.4375 51.859375 
L 48.4375 0 
z
" id="ArialMT-117"/>
       <path d="M 25.78125 7.859375 
L 27.046875 0.09375 
Q 23.34375 -0.6875 20.40625 -0.6875 
Q 15.625 -0.6875 12.984375 0.828125 
Q 10.359375 2.34375 9.28125 4.8125 
Q 8.203125 7.28125 8.203125 15.1875 
L 8.203125 45.015625 
L 1.765625 45.015625 
L 1.765625 51.859375 
L 8.203125 51.859375 
L 8.203125 64.703125 
L 16.9375 69.96875 
L 16.9375 51.859375 
L 25.78125 51.859375 
L 25.78125 45.015625 
L 16.9375 45.015625 
L 16.9375 14.703125 
Q 16.9375 10.9375 17.40625 9.859375 
Q 17.875 8.796875 18.921875 8.15625 
Q 19.96875 7.515625 21.921875 7.515625 
Q 23.390625 7.515625 25.78125 7.859375 
z
" id="ArialMT-116"/>
      </defs>
      <use xlink:href="#ArialMT-67"/>
      <use x="72.216797" xlink:href="#ArialMT-111"/>
      <use x="127.832031" xlink:href="#ArialMT-117"/>
      <use x="183.447266" xlink:href="#ArialMT-110"/>
      <use x="239.0625" xlink:href="#ArialMT-116"/>
     </g>
    </g>
   </g>
   <g id="patch_3">
    <path clip-path="url(#p6272f98ce2)" d="M 78.698864 391.2 
L 95.378788 391.2 
L 95.378788 383.580224 
L 78.698864 383.580224 
z
" style="fill:#c44e52;fill-opacity:0.5;stroke:#000000;stroke-linejoin:miter;stroke-width:0.3;"/>
   </g>
   <g id="patch_4">
    <path clip-path="url(#p6272f98ce2)" d="M 95.378788 391.2 
L 112.058712 391.2 
L 112.058712 385.658345 
L 95.378788 385.658345 
z
" style="fill:#c44e52;fill-opacity:0.5;stroke:#000000;stroke-linejoin:miter;stroke-width:0.3;"/>
   </g>
   <g id="patch_5">
    <path clip-path="url(#p6272f98ce2)" d="M 112.058712 391.2 
L 128.738636 391.2 
L 128.738636 385.658345 
L 112.058712 385.658345 
z
" style="fill:#c44e52;fill-opacity:0.5;stroke:#000000;stroke-linejoin:miter;stroke-width:0.3;"/>
   </g>
   <g id="patch_6">
    <path clip-path="url(#p6272f98ce2)" d="M 128.738636 391.2 
L 145.418561 391.2 
L 145.418561 390.507293 
L 128.738636 390.507293 
z
" style="fill:#c44e52;fill-opacity:0.5;stroke:#000000;stroke-linejoin:miter;stroke-width:0.3;"/>
   </g>
   <g id="patch_7">
    <path clip-path="url(#p6272f98ce2)" d="M 145.418561 391.2 
L 162.098485 391.2 
L 162.098485 385.658345 
L 145.418561 385.658345 
z
" style="fill:#c44e52;fill-opacity:0.5;stroke:#000000;stroke-linejoin:miter;stroke-width:0.3;"/>
   </g>
   <g id="patch_8">
    <path clip-path="url(#p6272f98ce2)" d="M 162.098485 391.2 
L 178.778409 391.2 
L 178.778409 388.429172 
L 162.098485 388.429172 
z
" style="fill:#c44e52;fill-opacity:0.5;stroke:#000000;stroke-linejoin:miter;stroke-width:0.3;"/>
   </g>
   <g id="patch_9">
    <path clip-path="url(#p6272f98ce2)" d="M 178.778409 391.2 
L 195.458333 391.2 
L 195.458333 387.736465 
L 178.778409 387.736465 
z
" style="fill:#c44e52;fill-opacity:0.5;stroke:#000000;stroke-linejoin:miter;stroke-width:0.3;"/>
   </g>
   <g id="patch_10">
    <path clip-path="url(#p6272f98ce2)" d="M 195.458333 391.2 
L 212.138258 391.2 
L 212.138258 387.736465 
L 195.458333 387.736465 
z
" style="fill:#c44e52;fill-opacity:0.5;stroke:#000000;stroke-linejoin:miter;stroke-width:0.3;"/>
   </g>
   <g id="patch_11">
    <path clip-path="url(#p6272f98ce2)" d="M 212.138258 391.2 
L 228.818182 391.2 
L 228.818182 382.19481 
L 212.138258 382.19481 
z
" style="fill:#c44e52;fill-opacity:0.5;stroke:#000000;stroke-linejoin:miter;stroke-width:0.3;"/>
   </g>
   <g id="patch_12">
    <path clip-path="url(#p6272f98ce2)" d="M 228.818182 391.2 
L 245.498106 391.2 
L 245.498106 386.351052 
L 228.818182 386.351052 
z
" style="fill:#c44e52;fill-opacity:0.5;stroke:#000000;stroke-linejoin:miter;stroke-width:0.3;"/>
   </g>
   <g id="patch_13">
    <path clip-path="url(#p6272f98ce2)" d="M 245.498106 391.2 
L 262.17803 391.2 
L 262.17803 378.038569 
L 245.498106 378.038569 
z
" style="fill:#c44e52;fill-opacity:0.5;stroke:#000000;stroke-linejoin:miter;stroke-width:0.3;"/>
   </g>
   <g id="patch_14">
    <path clip-path="url(#p6272f98ce2)" d="M 262.17803 391.2 
L 278.857955 391.2 
L 278.857955 384.965638 
L 262.17803 384.965638 
z
" style="fill:#c44e52;fill-opacity:0.5;stroke:#000000;stroke-linejoin:miter;stroke-width:0.3;"/>
   </g>
   <g id="patch_15">
    <path clip-path="url(#p6272f98ce2)" d="M 278.857955 391.2 
L 295.537879 391.2 
L 295.537879 385.658345 
L 278.857955 385.658345 
z
" style="fill:#c44e52;fill-opacity:0.5;stroke:#000000;stroke-linejoin:miter;stroke-width:0.3;"/>
   </g>
   <g id="patch_16">
    <path clip-path="url(#p6272f98ce2)" d="M 295.537879 391.2 
L 312.217803 391.2 
L 312.217803 384.272931 
L 295.537879 384.272931 
z
" style="fill:#c44e52;fill-opacity:0.5;stroke:#000000;stroke-linejoin:miter;stroke-width:0.3;"/>
   </g>
   <g id="patch_17">
    <path clip-path="url(#p6272f98ce2)" d="M 312.217803 391.2 
L 328.897727 391.2 
L 328.897727 384.272931 
L 312.217803 384.272931 
z
" style="fill:#c44e52;fill-opacity:0.5;stroke:#000000;stroke-linejoin:miter;stroke-width:0.3;"/>
   </g>
   <g id="patch_18">
    <path clip-path="url(#p6272f98ce2)" d="M 328.897727 391.2 
L 345.577652 391.2 
L 345.577652 387.043759 
L 328.897727 387.043759 
z
" style="fill:#c44e52;fill-opacity:0.5;stroke:#000000;stroke-linejoin:miter;stroke-width:0.3;"/>
   </g>
   <g id="patch_19">
    <path clip-path="url(#p6272f98ce2)" d="M 345.577652 391.2 
L 362.257576 391.2 
L 362.257576 383.580224 
L 345.577652 383.580224 
z
" style="fill:#c44e52;fill-opacity:0.5;stroke:#000000;stroke-linejoin:miter;stroke-width:0.3;"/>
   </g>
   <g id="patch_20">
    <path clip-path="url(#p6272f98ce2)" d="M 362.257576 391.2 
L 378.9375 391.2 
L 378.9375 387.736465 
L 362.257576 387.736465 
z
" style="fill:#c44e52;fill-opacity:0.5;stroke:#000000;stroke-linejoin:miter;stroke-width:0.3;"/>
   </g>
   <g id="patch_21">
    <path clip-path="url(#p6272f98ce2)" d="M 378.9375 391.2 
L 395.617424 391.2 
L 395.617424 388.429172 
L 378.9375 388.429172 
z
" style="fill:#c44e52;fill-opacity:0.5;stroke:#000000;stroke-linejoin:miter;stroke-width:0.3;"/>
   </g>
   <g id="patch_22">
    <path clip-path="url(#p6272f98ce2)" d="M 395.617424 391.2 
L 412.297348 391.2 
L 412.297348 386.351052 
L 395.617424 386.351052 
z
" style="fill:#c44e52;fill-opacity:0.5;stroke:#000000;stroke-linejoin:miter;stroke-width:0.3;"/>
   </g>
   <g id="patch_23">
    <path clip-path="url(#p6272f98ce2)" d="M 412.297348 391.2 
L 428.977273 391.2 
L 428.977273 385.658345 
L 412.297348 385.658345 
z
" style="fill:#c44e52;fill-opacity:0.5;stroke:#000000;stroke-linejoin:miter;stroke-width:0.3;"/>
   </g>
   <g id="patch_24">
    <path clip-path="url(#p6272f98ce2)" d="M 428.977273 391.2 
L 445.657197 391.2 
L 445.657197 385.658345 
L 428.977273 385.658345 
z
" style="fill:#c44e52;fill-opacity:0.5;stroke:#000000;stroke-linejoin:miter;stroke-width:0.3;"/>
   </g>
   <g id="patch_25">
    <path clip-path="url(#p6272f98ce2)" d="M 445.657197 391.2 
L 462.337121 391.2 
L 462.337121 383.580224 
L 445.657197 383.580224 
z
" style="fill:#c44e52;fill-opacity:0.5;stroke:#000000;stroke-linejoin:miter;stroke-width:0.3;"/>
   </g>
   <g id="patch_26">
    <path clip-path="url(#p6272f98ce2)" d="M 462.337121 391.2 
L 479.017045 391.2 
L 479.017045 386.351052 
L 462.337121 386.351052 
z
" style="fill:#c44e52;fill-opacity:0.5;stroke:#000000;stroke-linejoin:miter;stroke-width:0.3;"/>
   </g>
   <g id="patch_27">
    <path clip-path="url(#p6272f98ce2)" d="M 479.017045 391.2 
L 495.69697 391.2 
L 495.69697 386.351052 
L 479.017045 386.351052 
z
" style="fill:#c44e52;fill-opacity:0.5;stroke:#000000;stroke-linejoin:miter;stroke-width:0.3;"/>
   </g>
   <g id="patch_28">
    <path clip-path="url(#p6272f98ce2)" d="M 495.69697 391.2 
L 512.376894 391.2 
L 512.376894 389.814586 
L 495.69697 389.814586 
z
" style="fill:#c44e52;fill-opacity:0.5;stroke:#000000;stroke-linejoin:miter;stroke-width:0.3;"/>
   </g>
   <g id="patch_29">
    <path clip-path="url(#p6272f98ce2)" d="M 512.376894 391.2 
L 529.056818 391.2 
L 529.056818 387.736465 
L 512.376894 387.736465 
z
" style="fill:#c44e52;fill-opacity:0.5;stroke:#000000;stroke-linejoin:miter;stroke-width:0.3;"/>
   </g>
   <g id="patch_30">
    <path clip-path="url(#p6272f98ce2)" d="M 529.056818 391.2 
L 545.736742 391.2 
L 545.736742 389.121879 
L 529.056818 389.121879 
z
" style="fill:#c44e52;fill-opacity:0.5;stroke:#000000;stroke-linejoin:miter;stroke-width:0.3;"/>
   </g>
   <g id="patch_31">
    <path clip-path="url(#p6272f98ce2)" d="M 545.736742 391.2 
L 562.416667 391.2 
L 562.416667 389.814586 
L 545.736742 389.814586 
z
" style="fill:#c44e52;fill-opacity:0.5;stroke:#000000;stroke-linejoin:miter;stroke-width:0.3;"/>
   </g>
   <g id="patch_32">
    <path clip-path="url(#p6272f98ce2)" d="M 562.416667 391.2 
L 579.096591 391.2 
L 579.096591 391.2 
L 562.416667 391.2 
z
" style="fill:#c44e52;fill-opacity:0.5;stroke:#000000;stroke-linejoin:miter;stroke-width:0.3;"/>
   </g>
   <g id="patch_33">
    <path clip-path="url(#p6272f98ce2)" d="M 579.096591 391.2 
L 595.776515 391.2 
L 595.776515 391.2 
L 579.096591 391.2 
z
" style="fill:#c44e52;fill-opacity:0.5;stroke:#000000;stroke-linejoin:miter;stroke-width:0.3;"/>
   </g>
   <g id="patch_34">
    <path clip-path="url(#p6272f98ce2)" d="M 595.776515 391.2 
L 612.456439 391.2 
L 612.456439 391.2 
L 595.776515 391.2 
z
" style="fill:#c44e52;fill-opacity:0.5;stroke:#000000;stroke-linejoin:miter;stroke-width:0.3;"/>
   </g>
   <g id="patch_35">
    <path clip-path="url(#p6272f98ce2)" d="M 612.456439 391.2 
L 629.136364 391.2 
L 629.136364 391.2 
L 612.456439 391.2 
z
" style="fill:#c44e52;fill-opacity:0.5;stroke:#000000;stroke-linejoin:miter;stroke-width:0.3;"/>
   </g>
   <g id="patch_36">
    <path clip-path="url(#p6272f98ce2)" d="M 629.136364 391.2 
L 645.816288 391.2 
L 645.816288 391.2 
L 629.136364 391.2 
z
" style="fill:#c44e52;fill-opacity:0.5;stroke:#000000;stroke-linejoin:miter;stroke-width:0.3;"/>
   </g>
   <g id="patch_37">
    <path clip-path="url(#p6272f98ce2)" d="M 645.816288 391.2 
L 662.496212 391.2 
L 662.496212 391.2 
L 645.816288 391.2 
z
" style="fill:#c44e52;fill-opacity:0.5;stroke:#000000;stroke-linejoin:miter;stroke-width:0.3;"/>
   </g>
   <g id="patch_38">
    <path clip-path="url(#p6272f98ce2)" d="M 662.496212 391.2 
L 679.176136 391.2 
L 679.176136 391.2 
L 662.496212 391.2 
z
" style="fill:#c44e52;fill-opacity:0.5;stroke:#000000;stroke-linejoin:miter;stroke-width:0.3;"/>
   </g>
   <g id="patch_39">
    <path clip-path="url(#p6272f98ce2)" d="M 78.698864 391.2 
L 95.378788 391.2 
L 95.378788 140.440098 
L 78.698864 140.440098 
z
" style="fill:#55a868;fill-opacity:0.5;stroke:#000000;stroke-linejoin:miter;stroke-width:0.3;"/>
   </g>
   <g id="patch_40">
    <path clip-path="url(#p6272f98ce2)" d="M 95.378788 391.2 
L 112.058712 391.2 
L 112.058712 190.314996 
L 95.378788 190.314996 
z
" style="fill:#55a868;fill-opacity:0.5;stroke:#000000;stroke-linejoin:miter;stroke-width:0.3;"/>
   </g>
   <g id="patch_41">
    <path clip-path="url(#p6272f98ce2)" d="M 112.058712 391.2 
L 128.738636 391.2 
L 128.738636 105.112046 
L 112.058712 105.112046 
z
" style="fill:#55a868;fill-opacity:0.5;stroke:#000000;stroke-linejoin:miter;stroke-width:0.3;"/>
   </g>
   <g id="patch_42">
    <path clip-path="url(#p6272f98ce2)" d="M 128.738636 391.2 
L 145.418561 391.2 
L 145.418561 189.622289 
L 128.738636 189.622289 
z
" style="fill:#55a868;fill-opacity:0.5;stroke:#000000;stroke-linejoin:miter;stroke-width:0.3;"/>
   </g>
   <g id="patch_43">
    <path clip-path="url(#p6272f98ce2)" d="M 145.418561 391.2 
L 162.098485 391.2 
L 162.098485 115.50265 
L 145.418561 115.50265 
z
" style="fill:#55a868;fill-opacity:0.5;stroke:#000000;stroke-linejoin:miter;stroke-width:0.3;"/>
   </g>
   <g id="patch_44">
    <path clip-path="url(#p6272f98ce2)" d="M 162.098485 391.2 
L 178.778409 391.2 
L 178.778409 222.872221 
L 162.098485 222.872221 
z
" style="fill:#55a868;fill-opacity:0.5;stroke:#000000;stroke-linejoin:miter;stroke-width:0.3;"/>
   </g>
   <g id="patch_45">
    <path clip-path="url(#p6272f98ce2)" d="M 178.778409 391.2 
L 195.458333 391.2 
L 195.458333 105.112046 
L 178.778409 105.112046 
z
" style="fill:#55a868;fill-opacity:0.5;stroke:#000000;stroke-linejoin:miter;stroke-width:0.3;"/>
   </g>
   <g id="patch_46">
    <path clip-path="url(#p6272f98ce2)" d="M 195.458333 391.2 
L 212.138258 391.2 
L 212.138258 226.335755 
L 195.458333 226.335755 
z
" style="fill:#55a868;fill-opacity:0.5;stroke:#000000;stroke-linejoin:miter;stroke-width:0.3;"/>
   </g>
   <g id="patch_47">
    <path clip-path="url(#p6272f98ce2)" d="M 212.138258 391.2 
L 228.818182 391.2 
L 228.818182 28.914286 
L 212.138258 28.914286 
z
" style="fill:#55a868;fill-opacity:0.5;stroke:#000000;stroke-linejoin:miter;stroke-width:0.3;"/>
   </g>
   <g id="patch_48">
    <path clip-path="url(#p6272f98ce2)" d="M 228.818182 391.2 
L 245.498106 391.2 
L 245.498106 150.137995 
L 228.818182 150.137995 
z
" style="fill:#55a868;fill-opacity:0.5;stroke:#000000;stroke-linejoin:miter;stroke-width:0.3;"/>
   </g>
   <g id="patch_49">
    <path clip-path="url(#p6272f98ce2)" d="M 245.498106 391.2 
L 262.17803 391.2 
L 262.17803 38.612182 
L 245.498106 38.612182 
z
" style="fill:#55a868;fill-opacity:0.5;stroke:#000000;stroke-linejoin:miter;stroke-width:0.3;"/>
   </g>
   <g id="patch_50">
    <path clip-path="url(#p6272f98ce2)" d="M 262.17803 391.2 
L 278.857955 391.2 
L 278.857955 191.007703 
L 262.17803 191.007703 
z
" style="fill:#55a868;fill-opacity:0.5;stroke:#000000;stroke-linejoin:miter;stroke-width:0.3;"/>
   </g>
   <g id="patch_51">
    <path clip-path="url(#p6272f98ce2)" d="M 278.857955 391.2 
L 295.537879 391.2 
L 295.537879 81.560011 
L 278.857955 81.560011 
z
" style="fill:#55a868;fill-opacity:0.5;stroke:#000000;stroke-linejoin:miter;stroke-width:0.3;"/>
   </g>
   <g id="patch_52">
    <path clip-path="url(#p6272f98ce2)" d="M 295.537879 391.2 
L 312.217803 391.2 
L 312.217803 190.314996 
L 295.537879 190.314996 
z
" style="fill:#55a868;fill-opacity:0.5;stroke:#000000;stroke-linejoin:miter;stroke-width:0.3;"/>
   </g>
   <g id="patch_53">
    <path clip-path="url(#p6272f98ce2)" d="M 312.217803 391.2 
L 328.897727 391.2 
L 328.897727 92.643321 
L 312.217803 92.643321 
z
" style="fill:#55a868;fill-opacity:0.5;stroke:#000000;stroke-linejoin:miter;stroke-width:0.3;"/>
   </g>
   <g id="patch_54">
    <path clip-path="url(#p6272f98ce2)" d="M 328.897727 391.2 
L 345.577652 391.2 
L 345.577652 193.77853 
L 328.897727 193.77853 
z
" style="fill:#55a868;fill-opacity:0.5;stroke:#000000;stroke-linejoin:miter;stroke-width:0.3;"/>
   </g>
   <g id="patch_55">
    <path clip-path="url(#p6272f98ce2)" d="M 345.577652 391.2 
L 362.257576 391.2 
L 362.257576 60.086097 
L 345.577652 60.086097 
z
" style="fill:#55a868;fill-opacity:0.5;stroke:#000000;stroke-linejoin:miter;stroke-width:0.3;"/>
   </g>
   <g id="patch_56">
    <path clip-path="url(#p6272f98ce2)" d="M 362.257576 391.2 
L 378.9375 391.2 
L 378.9375 159.143185 
L 362.257576 159.143185 
z
" style="fill:#55a868;fill-opacity:0.5;stroke:#000000;stroke-linejoin:miter;stroke-width:0.3;"/>
   </g>
   <g id="patch_57">
    <path clip-path="url(#p6272f98ce2)" d="M 378.9375 391.2 
L 395.617424 391.2 
L 395.617424 213.867031 
L 378.9375 213.867031 
z
" style="fill:#55a868;fill-opacity:0.5;stroke:#000000;stroke-linejoin:miter;stroke-width:0.3;"/>
   </g>
   <g id="patch_58">
    <path clip-path="url(#p6272f98ce2)" d="M 395.617424 391.2 
L 412.297348 391.2 
L 412.297348 292.142912 
L 395.617424 292.142912 
z
" style="fill:#55a868;fill-opacity:0.5;stroke:#000000;stroke-linejoin:miter;stroke-width:0.3;"/>
   </g>
   <g id="patch_59">
    <path clip-path="url(#p6272f98ce2)" d="M 412.297348 391.2 
L 428.977273 391.2 
L 428.977273 263.741928 
L 412.297348 263.741928 
z
" style="fill:#55a868;fill-opacity:0.5;stroke:#000000;stroke-linejoin:miter;stroke-width:0.3;"/>
   </g>
   <g id="patch_60">
    <path clip-path="url(#p6272f98ce2)" d="M 428.977273 391.2 
L 445.657197 391.2 
L 445.657197 304.611636 
L 428.977273 304.611636 
z
" style="fill:#55a868;fill-opacity:0.5;stroke:#000000;stroke-linejoin:miter;stroke-width:0.3;"/>
   </g>
   <g id="patch_61">
    <path clip-path="url(#p6272f98ce2)" d="M 445.657197 391.2 
L 462.337121 391.2 
L 462.337121 278.288774 
L 445.657197 278.288774 
z
" style="fill:#55a868;fill-opacity:0.5;stroke:#000000;stroke-linejoin:miter;stroke-width:0.3;"/>
   </g>
   <g id="patch_62">
    <path clip-path="url(#p6272f98ce2)" d="M 462.337121 391.2 
L 479.017045 391.2 
L 479.017045 305.304343 
L 462.337121 305.304343 
z
" style="fill:#55a868;fill-opacity:0.5;stroke:#000000;stroke-linejoin:miter;stroke-width:0.3;"/>
   </g>
   <g id="patch_63">
    <path clip-path="url(#p6272f98ce2)" d="M 479.017045 391.2 
L 495.69697 391.2 
L 495.69697 267.89817 
L 479.017045 267.89817 
z
" style="fill:#55a868;fill-opacity:0.5;stroke:#000000;stroke-linejoin:miter;stroke-width:0.3;"/>
   </g>
   <g id="patch_64">
    <path clip-path="url(#p6272f98ce2)" d="M 495.69697 391.2 
L 512.376894 391.2 
L 512.376894 317.080361 
L 495.69697 317.080361 
z
" style="fill:#55a868;fill-opacity:0.5;stroke:#000000;stroke-linejoin:miter;stroke-width:0.3;"/>
   </g>
   <g id="patch_65">
    <path clip-path="url(#p6272f98ce2)" d="M 512.376894 391.2 
L 529.056818 391.2 
L 529.056818 274.132532 
L 512.376894 274.132532 
z
" style="fill:#55a868;fill-opacity:0.5;stroke:#000000;stroke-linejoin:miter;stroke-width:0.3;"/>
   </g>
   <g id="patch_66">
    <path clip-path="url(#p6272f98ce2)" d="M 529.056818 391.2 
L 545.736742 391.2 
L 545.736742 319.851188 
L 529.056818 319.851188 
z
" style="fill:#55a868;fill-opacity:0.5;stroke:#000000;stroke-linejoin:miter;stroke-width:0.3;"/>
   </g>
   <g id="patch_67">
    <path clip-path="url(#p6272f98ce2)" d="M 545.736742 391.2 
L 562.416667 391.2 
L 562.416667 355.179241 
L 545.736742 355.179241 
z
" style="fill:#55a868;fill-opacity:0.5;stroke:#000000;stroke-linejoin:miter;stroke-width:0.3;"/>
   </g>
   <g id="patch_68">
    <path clip-path="url(#p6272f98ce2)" d="M 562.416667 391.2 
L 579.096591 391.2 
L 579.096591 362.799017 
L 562.416667 362.799017 
z
" style="fill:#55a868;fill-opacity:0.5;stroke:#000000;stroke-linejoin:miter;stroke-width:0.3;"/>
   </g>
   <g id="patch_69">
    <path clip-path="url(#p6272f98ce2)" d="M 579.096591 391.2 
L 595.776515 391.2 
L 595.776515 357.950068 
L 579.096591 357.950068 
z
" style="fill:#55a868;fill-opacity:0.5;stroke:#000000;stroke-linejoin:miter;stroke-width:0.3;"/>
   </g>
   <g id="patch_70">
    <path clip-path="url(#p6272f98ce2)" d="M 595.776515 391.2 
L 612.456439 391.2 
L 612.456439 368.340672 
L 595.776515 368.340672 
z
" style="fill:#55a868;fill-opacity:0.5;stroke:#000000;stroke-linejoin:miter;stroke-width:0.3;"/>
   </g>
   <g id="patch_71">
    <path clip-path="url(#p6272f98ce2)" d="M 612.456439 391.2 
L 629.136364 391.2 
L 629.136364 353.10112 
L 612.456439 353.10112 
z
" style="fill:#55a868;fill-opacity:0.5;stroke:#000000;stroke-linejoin:miter;stroke-width:0.3;"/>
   </g>
   <g id="patch_72">
    <path clip-path="url(#p6272f98ce2)" d="M 629.136364 391.2 
L 645.816288 391.2 
L 645.816288 364.18443 
L 629.136364 364.18443 
z
" style="fill:#55a868;fill-opacity:0.5;stroke:#000000;stroke-linejoin:miter;stroke-width:0.3;"/>
   </g>
   <g id="patch_73">
    <path clip-path="url(#p6272f98ce2)" d="M 645.816288 391.2 
L 662.496212 391.2 
L 662.496212 362.799017 
L 645.816288 362.799017 
z
" style="fill:#55a868;fill-opacity:0.5;stroke:#000000;stroke-linejoin:miter;stroke-width:0.3;"/>
   </g>
   <g id="patch_74">
    <path clip-path="url(#p6272f98ce2)" d="M 662.496212 391.2 
L 679.176136 391.2 
L 679.176136 363.491724 
L 662.496212 363.491724 
z
" style="fill:#55a868;fill-opacity:0.5;stroke:#000000;stroke-linejoin:miter;stroke-width:0.3;"/>
   </g>
   <g id="patch_75">
    <path clip-path="url(#p6272f98ce2)" d="M 78.698864 391.2 
L 95.378788 391.2 
L 95.378788 284.523136 
L 78.698864 284.523136 
z
" style="fill:#4c72b0;fill-opacity:0.5;stroke:#000000;stroke-linejoin:miter;stroke-width:0.3;"/>
   </g>
   <g id="patch_76">
    <path clip-path="url(#p6272f98ce2)" d="M 95.378788 391.2 
L 112.058712 391.2 
L 112.058712 312.231412 
L 95.378788 312.231412 
z
" style="fill:#4c72b0;fill-opacity:0.5;stroke:#000000;stroke-linejoin:miter;stroke-width:0.3;"/>
   </g>
   <g id="patch_77">
    <path clip-path="url(#p6272f98ce2)" d="M 112.058712 391.2 
L 128.738636 391.2 
L 128.738636 262.356515 
L 112.058712 262.356515 
z
" style="fill:#4c72b0;fill-opacity:0.5;stroke:#000000;stroke-linejoin:miter;stroke-width:0.3;"/>
   </g>
   <g id="patch_78">
    <path clip-path="url(#p6272f98ce2)" d="M 128.738636 391.2 
L 145.418561 391.2 
L 145.418561 320.543895 
L 128.738636 320.543895 
z
" style="fill:#4c72b0;fill-opacity:0.5;stroke:#000000;stroke-linejoin:miter;stroke-width:0.3;"/>
   </g>
   <g id="patch_79">
    <path clip-path="url(#p6272f98ce2)" d="M 145.418561 391.2 
L 162.098485 391.2 
L 162.098485 270.668998 
L 145.418561 270.668998 
z
" style="fill:#4c72b0;fill-opacity:0.5;stroke:#000000;stroke-linejoin:miter;stroke-width:0.3;"/>
   </g>
   <g id="patch_80">
    <path clip-path="url(#p6272f98ce2)" d="M 162.098485 391.2 
L 178.778409 391.2 
L 178.778409 320.543895 
L 162.098485 320.543895 
z
" style="fill:#4c72b0;fill-opacity:0.5;stroke:#000000;stroke-linejoin:miter;stroke-width:0.3;"/>
   </g>
   <g id="patch_81">
    <path clip-path="url(#p6272f98ce2)" d="M 178.778409 391.2 
L 195.458333 391.2 
L 195.458333 286.601256 
L 178.778409 286.601256 
z
" style="fill:#4c72b0;fill-opacity:0.5;stroke:#000000;stroke-linejoin:miter;stroke-width:0.3;"/>
   </g>
   <g id="patch_82">
    <path clip-path="url(#p6272f98ce2)" d="M 195.458333 391.2 
L 212.138258 391.2 
L 212.138258 321.929309 
L 195.458333 321.929309 
z
" style="fill:#4c72b0;fill-opacity:0.5;stroke:#000000;stroke-linejoin:miter;stroke-width:0.3;"/>
   </g>
   <g id="patch_83">
    <path clip-path="url(#p6272f98ce2)" d="M 212.138258 391.2 
L 228.818182 391.2 
L 228.818182 206.939962 
L 212.138258 206.939962 
z
" style="fill:#4c72b0;fill-opacity:0.5;stroke:#000000;stroke-linejoin:miter;stroke-width:0.3;"/>
   </g>
   <g id="patch_84">
    <path clip-path="url(#p6272f98ce2)" d="M 228.818182 391.2 
L 245.498106 391.2 
L 245.498106 253.351325 
L 228.818182 253.351325 
z
" style="fill:#4c72b0;fill-opacity:0.5;stroke:#000000;stroke-linejoin:miter;stroke-width:0.3;"/>
   </g>
   <g id="patch_85">
    <path clip-path="url(#p6272f98ce2)" d="M 245.498106 391.2 
L 262.17803 391.2 
L 262.17803 186.851461 
L 245.498106 186.851461 
z
" style="fill:#4c72b0;fill-opacity:0.5;stroke:#000000;stroke-linejoin:miter;stroke-width:0.3;"/>
   </g>
   <g id="patch_86">
    <path clip-path="url(#p6272f98ce2)" d="M 262.17803 391.2 
L 278.857955 391.2 
L 278.857955 263.741928 
L 262.17803 263.741928 
z
" style="fill:#4c72b0;fill-opacity:0.5;stroke:#000000;stroke-linejoin:miter;stroke-width:0.3;"/>
   </g>
   <g id="patch_87">
    <path clip-path="url(#p6272f98ce2)" d="M 278.857955 391.2 
L 295.537879 391.2 
L 295.537879 195.163944 
L 278.857955 195.163944 
z
" style="fill:#4c72b0;fill-opacity:0.5;stroke:#000000;stroke-linejoin:miter;stroke-width:0.3;"/>
   </g>
   <g id="patch_88">
    <path clip-path="url(#p6272f98ce2)" d="M 295.537879 391.2 
L 312.217803 391.2 
L 312.217803 277.596067 
L 295.537879 277.596067 
z
" style="fill:#4c72b0;fill-opacity:0.5;stroke:#000000;stroke-linejoin:miter;stroke-width:0.3;"/>
   </g>
   <g id="patch_89">
    <path clip-path="url(#p6272f98ce2)" d="M 312.217803 391.2 
L 328.897727 391.2 
L 328.897727 210.403496 
L 312.217803 210.403496 
z
" style="fill:#4c72b0;fill-opacity:0.5;stroke:#000000;stroke-linejoin:miter;stroke-width:0.3;"/>
   </g>
   <g id="patch_90">
    <path clip-path="url(#p6272f98ce2)" d="M 328.897727 391.2 
L 345.577652 391.2 
L 345.577652 299.069981 
L 328.897727 299.069981 
z
" style="fill:#4c72b0;fill-opacity:0.5;stroke:#000000;stroke-linejoin:miter;stroke-width:0.3;"/>
   </g>
   <g id="patch_91">
    <path clip-path="url(#p6272f98ce2)" d="M 345.577652 391.2 
L 362.257576 391.2 
L 362.257576 133.513029 
L 345.577652 133.513029 
z
" style="fill:#4c72b0;fill-opacity:0.5;stroke:#000000;stroke-linejoin:miter;stroke-width:0.3;"/>
   </g>
   <g id="patch_92">
    <path clip-path="url(#p6272f98ce2)" d="M 362.257576 391.2 
L 378.9375 391.2 
L 378.9375 213.867031 
L 362.257576 213.867031 
z
" style="fill:#4c72b0;fill-opacity:0.5;stroke:#000000;stroke-linejoin:miter;stroke-width:0.3;"/>
   </g>
   <g id="patch_93">
    <path clip-path="url(#p6272f98ce2)" d="M 378.9375 391.2 
L 395.617424 391.2 
L 395.617424 184.773341 
L 378.9375 184.773341 
z
" style="fill:#4c72b0;fill-opacity:0.5;stroke:#000000;stroke-linejoin:miter;stroke-width:0.3;"/>
   </g>
   <g id="patch_94">
    <path clip-path="url(#p6272f98ce2)" d="M 395.617424 391.2 
L 412.297348 391.2 
L 412.297348 271.361704 
L 395.617424 271.361704 
z
" style="fill:#4c72b0;fill-opacity:0.5;stroke:#000000;stroke-linejoin:miter;stroke-width:0.3;"/>
   </g>
   <g id="patch_95">
    <path clip-path="url(#p6272f98ce2)" d="M 412.297348 391.2 
L 428.977273 391.2 
L 428.977273 229.79929 
L 412.297348 229.79929 
z
" style="fill:#4c72b0;fill-opacity:0.5;stroke:#000000;stroke-linejoin:miter;stroke-width:0.3;"/>
   </g>
   <g id="patch_96">
    <path clip-path="url(#p6272f98ce2)" d="M 428.977273 391.2 
L 445.657197 391.2 
L 445.657197 291.450205 
L 428.977273 291.450205 
z
" style="fill:#4c72b0;fill-opacity:0.5;stroke:#000000;stroke-linejoin:miter;stroke-width:0.3;"/>
   </g>
   <g id="patch_97">
    <path clip-path="url(#p6272f98ce2)" d="M 445.657197 391.2 
L 462.337121 391.2 
L 462.337121 218.023272 
L 445.657197 218.023272 
z
" style="fill:#4c72b0;fill-opacity:0.5;stroke:#000000;stroke-linejoin:miter;stroke-width:0.3;"/>
   </g>
   <g id="patch_98">
    <path clip-path="url(#p6272f98ce2)" d="M 462.337121 391.2 
L 479.017045 391.2 
L 479.017045 285.90855 
L 462.337121 285.90855 
z
" style="fill:#4c72b0;fill-opacity:0.5;stroke:#000000;stroke-linejoin:miter;stroke-width:0.3;"/>
   </g>
   <g id="patch_99">
    <path clip-path="url(#p6272f98ce2)" d="M 479.017045 391.2 
L 495.69697 391.2 
L 495.69697 269.976291 
L 479.017045 269.976291 
z
" style="fill:#4c72b0;fill-opacity:0.5;stroke:#000000;stroke-linejoin:miter;stroke-width:0.3;"/>
   </g>
   <g id="patch_100">
    <path clip-path="url(#p6272f98ce2)" d="M 495.69697 391.2 
L 512.376894 391.2 
L 512.376894 301.840809 
L 495.69697 301.840809 
z
" style="fill:#4c72b0;fill-opacity:0.5;stroke:#000000;stroke-linejoin:miter;stroke-width:0.3;"/>
   </g>
   <g id="patch_101">
    <path clip-path="url(#p6272f98ce2)" d="M 512.376894 391.2 
L 529.056818 391.2 
L 529.056818 247.116963 
L 512.376894 247.116963 
z
" style="fill:#4c72b0;fill-opacity:0.5;stroke:#000000;stroke-linejoin:miter;stroke-width:0.3;"/>
   </g>
   <g id="patch_102">
    <path clip-path="url(#p6272f98ce2)" d="M 529.056818 391.2 
L 545.736742 391.2 
L 545.736742 301.840809 
L 529.056818 301.840809 
z
" style="fill:#4c72b0;fill-opacity:0.5;stroke:#000000;stroke-linejoin:miter;stroke-width:0.3;"/>
   </g>
   <g id="patch_103">
    <path clip-path="url(#p6272f98ce2)" d="M 545.736742 391.2 
L 562.416667 391.2 
L 562.416667 301.840809 
L 545.736742 301.840809 
z
" style="fill:#4c72b0;fill-opacity:0.5;stroke:#000000;stroke-linejoin:miter;stroke-width:0.3;"/>
   </g>
   <g id="patch_104">
    <path clip-path="url(#p6272f98ce2)" d="M 562.416667 391.2 
L 579.096591 391.2 
L 579.096591 340.632396 
L 562.416667 340.632396 
z
" style="fill:#4c72b0;fill-opacity:0.5;stroke:#000000;stroke-linejoin:miter;stroke-width:0.3;"/>
   </g>
   <g id="patch_105">
    <path clip-path="url(#p6272f98ce2)" d="M 579.096591 391.2 
L 595.776515 391.2 
L 595.776515 314.309533 
L 579.096591 314.309533 
z
" style="fill:#4c72b0;fill-opacity:0.5;stroke:#000000;stroke-linejoin:miter;stroke-width:0.3;"/>
   </g>
   <g id="patch_106">
    <path clip-path="url(#p6272f98ce2)" d="M 595.776515 391.2 
L 612.456439 391.2 
L 612.456439 331.627206 
L 595.776515 331.627206 
z
" style="fill:#4c72b0;fill-opacity:0.5;stroke:#000000;stroke-linejoin:miter;stroke-width:0.3;"/>
   </g>
   <g id="patch_107">
    <path clip-path="url(#p6272f98ce2)" d="M 612.456439 391.2 
L 629.136364 391.2 
L 629.136364 319.851188 
L 612.456439 319.851188 
z
" style="fill:#4c72b0;fill-opacity:0.5;stroke:#000000;stroke-linejoin:miter;stroke-width:0.3;"/>
   </g>
   <g id="patch_108">
    <path clip-path="url(#p6272f98ce2)" d="M 629.136364 391.2 
L 645.816288 391.2 
L 645.816288 344.09593 
L 629.136364 344.09593 
z
" style="fill:#4c72b0;fill-opacity:0.5;stroke:#000000;stroke-linejoin:miter;stroke-width:0.3;"/>
   </g>
   <g id="patch_109">
    <path clip-path="url(#p6272f98ce2)" d="M 645.816288 391.2 
L 662.496212 391.2 
L 662.496212 330.934499 
L 645.816288 330.934499 
z
" style="fill:#4c72b0;fill-opacity:0.5;stroke:#000000;stroke-linejoin:miter;stroke-width:0.3;"/>
   </g>
   <g id="patch_110">
    <path clip-path="url(#p6272f98ce2)" d="M 662.496212 391.2 
L 679.176136 391.2 
L 679.176136 332.319913 
L 662.496212 332.319913 
z
" style="fill:#4c72b0;fill-opacity:0.5;stroke:#000000;stroke-linejoin:miter;stroke-width:0.3;"/>
   </g>
   <g id="line2d_23">
    <path clip-path="url(#p6272f98ce2)" d="M 78.698864 388.438278 
L 96.803706 387.823359 
L 114.908548 387.43056 
L 139.048338 387.165495 
L 166.205602 386.829794 
L 184.310444 386.390272 
L 208.450234 385.536033 
L 235.607498 384.575439 
L 250.694866 384.247288 
L 265.782235 384.14112 
L 280.869604 384.24817 
L 301.99192 384.648818 
L 365.358868 386.041555 
L 386.481184 386.22456 
L 416.655922 386.215519 
L 443.813185 386.272441 
L 461.918028 386.53314 
L 480.02287 387.007756 
L 504.16266 387.87512 
L 558.477187 389.901596 
L 582.616977 390.538684 
L 606.756767 390.928749 
L 633.91403 391.126098 
L 679.176136 391.196079 
L 679.176136 391.196079 
" style="fill:none;stroke:#c44e52;stroke-linecap:round;stroke-width:1.75;"/>
   </g>
   <g id="line2d_24">
    <path clip-path="url(#p6272f98ce2)" d="M 78.698864 266.627687 
L 84.733811 239.808084 
L 87.751285 227.08426 
L 90.768759 215.123649 
L 93.786232 204.110102 
L 96.803706 194.180889 
L 99.82118 185.422741 
L 102.838653 177.871909 
L 105.856127 171.517927 
L 108.873601 166.31033 
L 111.891075 162.167394 
L 114.908548 158.985788 
L 117.926022 156.650116 
L 120.943496 155.04142 
L 123.96097 154.044019 
L 126.978443 153.550309 
L 129.995917 153.463492 
L 133.013391 153.698417 
L 136.030865 154.180954 
L 139.048338 154.84641 
L 145.083286 156.50245 
L 154.135707 159.074207 
L 157.153181 159.781209 
L 160.170654 160.348046 
L 163.188128 160.74001 
L 166.205602 160.925592 
L 169.223076 160.876444 
L 172.240549 160.567125 
L 175.258023 159.974756 
L 178.275497 159.07881 
L 181.292971 157.861246 
L 184.310444 156.307221 
L 187.327918 154.406457 
L 190.345392 152.155245 
L 193.362865 149.558871 
L 196.380339 146.634139 
L 199.397813 143.411558 
L 202.415287 139.936741 
L 208.450234 132.48831 
L 214.485182 124.928822 
L 217.502655 121.342356 
L 220.520129 118.010734 
L 223.537603 115.019546 
L 226.555077 112.441483 
L 229.57255 110.33268 
L 232.590024 108.730399 
L 235.607498 107.652169 
L 238.624971 107.096301 
L 241.642445 107.043565 
L 244.659919 107.459737 
L 247.677393 108.298673 
L 250.694866 109.505584 
L 253.71234 111.020243 
L 256.729814 112.779936 
L 262.764761 116.785995 
L 274.834656 125.208081 
L 280.869604 128.945711 
L 283.887077 130.596539 
L 286.904551 132.079645 
L 289.922025 133.384337 
L 292.939499 134.503989 
L 295.956972 135.435334 
L 298.974446 136.177838 
L 301.99192 136.733186 
L 305.009394 137.104982 
L 308.026867 137.298719 
L 311.044341 137.322093 
L 314.061815 137.185723 
L 317.079288 136.904287 
L 323.114236 135.994745 
L 332.166657 134.331289 
L 335.184131 133.929992 
L 338.201605 133.740166 
L 341.219078 133.860364 
L 344.236552 134.396852 
L 347.254026 135.458635 
L 350.2715 137.151105 
L 353.288973 139.568739 
L 356.306447 142.787425 
L 359.323921 146.857173 
L 362.341394 151.796012 
L 365.358868 157.585821 
L 368.376342 164.170704 
L 371.393816 171.458255 
L 374.411289 179.323761 
L 380.446237 196.171338 
L 386.481184 213.373377 
L 389.498658 221.695085 
L 392.516132 229.643044 
L 395.533606 237.108501 
L 398.551079 244.012387 
L 401.568553 250.305803 
L 404.586027 255.968222 
L 407.6035 261.003908 
L 410.620974 265.437176 
L 413.638448 269.307126 
L 416.655922 272.662436 
L 419.673395 275.55666 
L 422.690869 278.044305 
L 425.708343 280.177844 
L 428.725817 282.005636 
L 431.74329 283.570686 
L 434.760764 284.910093 
L 437.778238 286.055045 
L 440.795712 287.031219 
L 443.813185 287.859489 
L 446.830659 288.556826 
L 452.865606 289.61332 
L 458.900554 290.298088 
L 464.935501 290.70931 
L 483.040344 291.551713 
L 489.075291 292.165884 
L 492.092765 292.610663 
L 495.110239 293.16866 
L 498.127712 293.856785 
L 501.145186 294.69326 
L 504.16266 295.697899 
L 507.180134 296.891955 
L 510.197607 298.297439 
L 513.215081 299.935827 
L 516.232555 301.826226 
L 519.250029 303.983117 
L 522.267502 306.413936 
L 525.284976 309.116776 
L 528.30245 312.078547 
L 531.319923 315.273915 
L 537.354871 322.20358 
L 549.424766 336.600616 
L 552.44224 339.942151 
L 555.459713 343.069585 
L 558.477187 345.944453 
L 561.494661 348.540959 
L 564.512135 350.846153 
L 567.529608 352.859054 
L 570.547082 354.588922 
L 573.564556 356.052982 
L 576.582029 357.273919 
L 579.599503 358.277474 
L 582.616977 359.090363 
L 585.634451 359.738721 
L 588.651924 360.247101 
L 594.686872 360.931954 
L 600.721819 361.302136 
L 609.774241 361.557848 
L 618.826662 361.798889 
L 624.861609 362.105807 
L 630.896557 362.602972 
L 636.931504 363.330934 
L 642.966452 364.325138 
L 649.001399 365.628507 
L 655.036347 367.291105 
L 661.071294 369.351819 
L 667.106241 371.808315 
L 673.141189 374.590858 
L 679.176136 377.556367 
L 679.176136 377.556367 
" style="fill:none;stroke:#55a868;stroke-linecap:round;stroke-width:1.75;"/>
   </g>
   <g id="line2d_25">
    <path clip-path="url(#p6272f98ce2)" d="M 78.698864 339.580055 
L 84.733811 330.327694 
L 87.751285 325.887947 
L 90.768759 321.648882 
L 93.786232 317.659199 
L 96.803706 313.958812 
L 99.82118 310.577899 
L 102.838653 307.536511 
L 105.856127 304.844738 
L 108.873601 302.503361 
L 111.891075 300.504894 
L 114.908548 298.83489 
L 117.926022 297.473387 
L 120.943496 296.39637 
L 123.96097 295.577127 
L 126.978443 294.987429 
L 129.995917 294.598457 
L 133.013391 294.381446 
L 136.030865 294.308064 
L 142.065812 294.48146 
L 160.170654 295.57809 
L 163.188128 295.541383 
L 166.205602 295.360107 
L 169.223076 295.003291 
L 172.240549 294.441222 
L 175.258023 293.646482 
L 178.275497 292.595093 
L 181.292971 291.26771 
L 184.310444 289.650779 
L 187.327918 287.737576 
L 190.345392 285.529049 
L 193.362865 283.034384 
L 196.380339 280.271239 
L 199.397813 277.265596 
L 202.415287 274.051224 
L 208.450234 267.164446 
L 220.520129 252.958135 
L 223.537603 249.617714 
L 226.555077 246.455805 
L 229.57255 243.51063 
L 232.590024 240.813686 
L 235.607498 238.389198 
L 238.624971 236.253922 
L 241.642445 234.417271 
L 244.659919 232.88172 
L 247.677393 231.643424 
L 250.694866 230.692994 
L 253.71234 230.01634 
L 256.729814 229.595536 
L 259.747288 229.409654 
L 262.764761 229.435503 
L 265.782235 229.648269 
L 268.799709 230.022025 
L 274.834656 231.145351 
L 280.869604 232.587011 
L 289.922025 234.85478 
L 295.956972 236.098506 
L 298.974446 236.550674 
L 301.99192 236.849976 
L 305.009394 236.967537 
L 308.026867 236.876219 
L 311.044341 236.551719 
L 314.061815 235.973892 
L 317.079288 235.12823 
L 320.096762 234.00741 
L 323.114236 232.612791 
L 326.13171 230.955728 
L 329.149183 229.058543 
L 332.166657 226.95502 
L 338.201605 222.320032 
L 344.236552 217.528602 
L 347.254026 215.254504 
L 350.2715 213.162975 
L 353.288973 211.327594 
L 356.306447 209.815716 
L 359.323921 208.685209 
L 362.341394 207.981657 
L 365.358868 207.736237 
L 368.376342 207.96439 
L 371.393816 208.665385 
L 374.411289 209.822767 
L 377.428763 211.405631 
L 380.446237 213.370604 
L 383.463711 215.664345 
L 386.481184 218.2264 
L 392.516132 223.895852 
L 404.586027 235.671755 
L 407.6035 238.402888 
L 410.620974 240.975041 
L 413.638448 243.366606 
L 416.655922 245.56474 
L 419.673395 247.564936 
L 422.690869 249.370372 
L 425.708343 250.991081 
L 428.725817 252.442969 
L 431.74329 253.746706 
L 437.778238 256.008773 
L 446.830659 258.93909 
L 455.88308 261.871056 
L 461.918028 264.004463 
L 470.970449 267.456978 
L 483.040344 272.051198 
L 489.075291 274.135989 
L 498.127712 276.964944 
L 507.180134 279.743474 
L 513.215081 281.84604 
L 519.250029 284.349939 
L 522.267502 285.79265 
L 525.284976 287.374431 
L 528.30245 289.096898 
L 534.337397 292.939113 
L 540.372345 297.210108 
L 555.459713 308.411969 
L 561.494661 312.482368 
L 564.512135 314.329212 
L 567.529608 316.029641 
L 570.547082 317.574958 
L 573.564556 318.962192 
L 576.582029 320.193882 
L 579.599503 321.277609 
L 582.616977 322.225292 
L 588.651924 323.77664 
L 594.686872 324.995499 
L 615.809188 328.767132 
L 621.844135 330.16313 
L 627.879083 331.842785 
L 633.91403 333.873173 
L 639.948978 336.325671 
L 642.966452 337.732659 
L 645.983925 339.270851 
L 649.001399 340.946401 
L 652.018873 342.763093 
L 655.036347 344.721628 
L 661.071294 349.047876 
L 667.106241 353.848712 
L 673.141189 358.976894 
L 679.176136 364.226027 
L 679.176136 364.226027 
" style="fill:none;stroke:#4c72b0;stroke-linecap:round;stroke-width:1.75;"/>
   </g>
   <g id="patch_111">
    <path d="M 48.675 391.2 
L 48.675 10.8 
" style="fill:none;"/>
   </g>
   <g id="patch_112">
    <path d="M 709.2 391.2 
L 709.2 10.8 
" style="fill:none;"/>
   </g>
   <g id="patch_113">
    <path d="M 48.675 391.2 
L 709.2 391.2 
" style="fill:none;"/>
   </g>
   <g id="patch_114">
    <path d="M 48.675 10.8 
L 709.2 10.8 
" style="fill:none;"/>
   </g>
   <g id="legend_1">
    <g id="text_14">
     <!-- gender -->
     <g style="fill:#262626;" transform="translate(666.467969 26.957813)scale(0.1 -0.1)">
      <defs>
       <path d="M 4.984375 -4.296875 
L 13.53125 -5.5625 
Q 14.0625 -9.515625 16.5 -11.328125 
Q 19.78125 -13.765625 25.4375 -13.765625 
Q 31.546875 -13.765625 34.859375 -11.328125 
Q 38.1875 -8.890625 39.359375 -4.5 
Q 40.046875 -1.8125 39.984375 6.78125 
Q 34.234375 0 25.640625 0 
Q 14.9375 0 9.078125 7.71875 
Q 3.21875 15.4375 3.21875 26.21875 
Q 3.21875 33.640625 5.90625 39.90625 
Q 8.59375 46.1875 13.6875 49.609375 
Q 18.796875 53.03125 25.6875 53.03125 
Q 34.859375 53.03125 40.828125 45.609375 
L 40.828125 51.859375 
L 48.921875 51.859375 
L 48.921875 7.03125 
Q 48.921875 -5.078125 46.453125 -10.125 
Q 44 -15.1875 38.640625 -18.109375 
Q 33.296875 -21.046875 25.484375 -21.046875 
Q 16.21875 -21.046875 10.5 -16.875 
Q 4.78125 -12.703125 4.984375 -4.296875 
z
M 12.25 26.859375 
Q 12.25 16.65625 16.296875 11.96875 
Q 20.359375 7.28125 26.46875 7.28125 
Q 32.515625 7.28125 36.609375 11.9375 
Q 40.71875 16.609375 40.71875 26.5625 
Q 40.71875 36.078125 36.5 40.90625 
Q 32.28125 45.75 26.3125 45.75 
Q 20.453125 45.75 16.34375 40.984375 
Q 12.25 36.234375 12.25 26.859375 
z
" id="ArialMT-103"/>
       <path d="M 40.234375 0 
L 40.234375 6.546875 
Q 35.296875 -1.171875 25.734375 -1.171875 
Q 19.53125 -1.171875 14.328125 2.25 
Q 9.125 5.671875 6.265625 11.796875 
Q 3.421875 17.921875 3.421875 25.875 
Q 3.421875 33.640625 6 39.96875 
Q 8.59375 46.296875 13.765625 49.65625 
Q 18.953125 53.03125 25.34375 53.03125 
Q 30.03125 53.03125 33.6875 51.046875 
Q 37.359375 49.078125 39.65625 45.90625 
L 39.65625 71.578125 
L 48.390625 71.578125 
L 48.390625 0 
z
M 12.453125 25.875 
Q 12.453125 15.921875 16.640625 10.984375 
Q 20.84375 6.0625 26.5625 6.0625 
Q 32.328125 6.0625 36.34375 10.765625 
Q 40.375 15.484375 40.375 25.140625 
Q 40.375 35.796875 36.265625 40.765625 
Q 32.171875 45.75 26.171875 45.75 
Q 20.3125 45.75 16.375 40.96875 
Q 12.453125 36.1875 12.453125 25.875 
z
" id="ArialMT-100"/>
       <path d="M 6.5 0 
L 6.5 51.859375 
L 14.40625 51.859375 
L 14.40625 44 
Q 17.4375 49.515625 20 51.265625 
Q 22.5625 53.03125 25.640625 53.03125 
Q 30.078125 53.03125 34.671875 50.203125 
L 31.640625 42.046875 
Q 28.421875 43.953125 25.203125 43.953125 
Q 22.3125 43.953125 20.015625 42.21875 
Q 17.71875 40.484375 16.75 37.40625 
Q 15.28125 32.71875 15.28125 27.15625 
L 15.28125 0 
z
" id="ArialMT-114"/>
      </defs>
      <use xlink:href="#ArialMT-103"/>
      <use x="55.615234" xlink:href="#ArialMT-101"/>
      <use x="111.230469" xlink:href="#ArialMT-110"/>
      <use x="166.845703" xlink:href="#ArialMT-100"/>
      <use x="222.460938" xlink:href="#ArialMT-101"/>
      <use x="278.076172" xlink:href="#ArialMT-114"/>
     </g>
    </g>
    <g id="patch_115">
     <path d="M 663.870313 41.220313 
L 683.870313 41.220313 
L 683.870313 34.220313 
L 663.870313 34.220313 
z
" style="fill:#4c72b0;fill-opacity:0.5;stroke:#000000;stroke-linejoin:miter;stroke-width:0.3;"/>
    </g>
    <g id="text_15">
     <!-- F -->
     <g style="fill:#262626;" transform="translate(691.870313 41.220313)scale(0.1 -0.1)">
      <defs>
       <path d="M 8.203125 0 
L 8.203125 71.578125 
L 56.5 71.578125 
L 56.5 63.140625 
L 17.671875 63.140625 
L 17.671875 40.96875 
L 51.265625 40.96875 
L 51.265625 32.515625 
L 17.671875 32.515625 
L 17.671875 0 
z
" id="ArialMT-70"/>
      </defs>
      <use xlink:href="#ArialMT-70"/>
     </g>
    </g>
    <g id="patch_116">
     <path d="M 663.870313 55.365625 
L 683.870313 55.365625 
L 683.870313 48.365625 
L 663.870313 48.365625 
z
" style="fill:#55a868;fill-opacity:0.5;stroke:#000000;stroke-linejoin:miter;stroke-width:0.3;"/>
    </g>
    <g id="text_16">
     <!-- M -->
     <g style="fill:#262626;" transform="translate(691.870313 55.365625)scale(0.1 -0.1)">
      <defs>
       <path d="M 7.421875 0 
L 7.421875 71.578125 
L 21.6875 71.578125 
L 38.625 20.90625 
Q 40.96875 13.8125 42.046875 10.296875 
Q 43.265625 14.203125 45.84375 21.78125 
L 62.984375 71.578125 
L 75.734375 71.578125 
L 75.734375 0 
L 66.609375 0 
L 66.609375 59.90625 
L 45.796875 0 
L 37.25 0 
L 16.546875 60.9375 
L 16.546875 0 
z
" id="ArialMT-77"/>
      </defs>
      <use xlink:href="#ArialMT-77"/>
     </g>
    </g>
    <g id="patch_117">
     <path d="M 663.870313 69.510938 
L 683.870313 69.510938 
L 683.870313 62.510938 
L 663.870313 62.510938 
z
" style="fill:#c44e52;fill-opacity:0.5;stroke:#000000;stroke-linejoin:miter;stroke-width:0.3;"/>
    </g>
    <g id="text_17">
     <!-- O -->
     <g style="fill:#262626;" transform="translate(691.870313 69.510938)scale(0.1 -0.1)">
      <defs>
       <path d="M 4.828125 34.859375 
Q 4.828125 52.6875 14.390625 62.765625 
Q 23.96875 72.859375 39.109375 72.859375 
Q 49.03125 72.859375 56.984375 68.109375 
Q 64.9375 63.375 69.109375 54.90625 
Q 73.296875 46.4375 73.296875 35.6875 
Q 73.296875 24.8125 68.890625 16.21875 
Q 64.5 7.625 56.4375 3.203125 
Q 48.390625 -1.21875 39.0625 -1.21875 
Q 28.953125 -1.21875 20.984375 3.65625 
Q 13.03125 8.546875 8.921875 16.984375 
Q 4.828125 25.4375 4.828125 34.859375 
z
M 14.59375 34.71875 
Q 14.59375 21.78125 21.546875 14.328125 
Q 28.515625 6.890625 39.015625 6.890625 
Q 49.703125 6.890625 56.609375 14.40625 
Q 63.53125 21.921875 63.53125 35.75 
Q 63.53125 44.484375 60.578125 51 
Q 57.625 57.515625 51.921875 61.109375 
Q 46.234375 64.703125 39.15625 64.703125 
Q 29.109375 64.703125 21.84375 57.78125 
Q 14.59375 50.875 14.59375 34.71875 
z
" id="ArialMT-79"/>
      </defs>
      <use xlink:href="#ArialMT-79"/>
     </g>
    </g>
   </g>
  </g>
 </g>
 <defs>
  <clipPath id="p6272f98ce2">
   <rect height="380.4" width="660.525" x="48.675" y="10.8"/>
  </clipPath>
 </defs>
</svg>
